<svg width="361" height="631" viewBox="0 0 361 631" fill="none" xmlns="http://www.w3.org/2000/svg">
<path d="M205 391.409L200 391.762L195 392.025L189.683 392.208L184.5 392.292L179.4 392.283L174.5 392.189L169.5 392.008L164.5 391.738L159.282 391.36L154 390.878L149 390.328L144 389.683L139 388.943L133.5 388.017L128.5 387.07L123.5 386.019L118.5 384.863L113.5 383.597L108.672 382.267L104 380.876L99.0005 379.267L94.0005 377.53L89.2433 375.75L84.5005 373.847L79.5005 371.692L74.7624 369.5L70.1563 367.218L65.5005 364.747L61.2714 362.348L57.0005 359.761L52.9101 357.115L49.0005 354.413L139.5 268.006L177.437 258.5L179.894 268.503L205 391.409Z" fill="#FFE8CD"/>
<path d="M24.0005 331.243L21.2943 327.739L19.0005 324.496L16.5005 320.597L14.4331 317L12.3932 313L10.6167 309L9.09542 305L7.82218 301L177.437 258.5L139.5 268.006L49.0005 354.413L45.717 352L42.5005 349.495L39.0005 346.59L35.73 343.686L32.5005 340.611L29.5005 337.54L26.5005 334.226L24.0005 331.243Z" fill="#FFF1E1"/>
<path d="M7.82218 301L6.90691 297.5L6.17364 294L5.55482 290L5.16642 286L5.00558 282L5.07035 278L5.36167 274L5.80441 270.5L6.50049 266.631L7.3544 263L8.50049 259.073L9.74851 255.5L11.1653 252L12.7793 248.5L14.5005 245.175L16.3205 242L18.0832 239.184L20.0005 236.354L22.0005 233.614L24.0457 231L26.2377 228.376L28.5005 225.834L30.7997 223.401L33.2027 221L35.6749 218.663L38.0871 216.5L40.6829 214.288L43.2845 212.18L46.1136 210L48.8411 208L51.4208 206.231L54.0005 204.462L56.746 202.697L59.5005 201.003L62.2905 199.359L65.0005 197.828L68.0005 196.204L71.0005 194.651L74.0005 193.166L77.0005 191.744L80.0005 190.384L83.0005 189.082L86.1251 187.785L89.3685 186.5L92.4297 185.343L95.5005 184.234L98.7665 183.11L102 182.052L105.293 181.028L108.5 180.081L111.776 179.164L115 178.31L118.344 177.474L121.709 176.681L125.13 175.926L128.5 175.229L132 174.556L135.5 173.931L139 173.356L142.5 172.828L146 172.347L149.28 171.938L152.646 171.56L156 171.226L177.437 258.5L7.82218 301Z" fill="#FDF4EA"/>
<path d="M179.894 268.503L156 171.226L167.889 170.369L175 170.096L182.445 170L189.889 170.096L197 170.369L204.622 170.965L212.243 171.56L219.066 172.458L225.889 173.356L232.824 174.641L239.759 175.926L246.436 177.545L253.113 179.164L261 181.458L267 183.407L275 186.3L281.889 189.082L289.5 192.5L297 196.263L303.5 199.882L310 203.882L317 208.687L322.5 212.894L327.932 217.5L333.204 222.5L338.758 228.5L343.551 234.5L347.331 240L350.833 246L353.724 252L356.202 258.5L179.894 268.503Z" fill="#EACCAB"/>
<path d="M324.5 347.766L318.087 352.813L311.4 357.5L304.5 361.827L297.068 366L290 369.561L282.5 372.956L274.5 376.19L267 378.892L259.5 381.3L251.5 383.568L243.693 385.5L236 387.147L228.5 388.518L220.5 389.737L212.5 390.711L205 391.409L179.894 268.503L356.202 258.5L357.664 263.5L358.753 268.503L359.528 274L359.87 279.5L359.784 285L359.27 290.5L358.319 296L356.772 302L354.677 308L352 314.022L348.748 320L345 325.786L340.5 331.721L335.5 337.422L330.433 342.5L324.5 347.766Z" fill="#FADDBD"/>
<path d="M182.445 170C84.4449 170 5.00049 219.763 5.00049 281.149C5.00049 342.536 84.4449 392.299 182.445 392.299C280.444 392.299 359.889 342.536 359.889 281.149C359.889 219.763 280.444 170 182.445 170ZM182.445 170L175 170.096L167.889 170.369L156 171.226M182.445 170L189.889 170.096L197 170.369L204.622 170.965L212.243 171.56L219.066 172.458L225.889 173.356L232.824 174.641L239.759 175.926L246.436 177.545L253.113 179.164L261 181.458L267 183.407L275 186.3L281.889 189.082L289.5 192.5L297 196.263L303.5 199.882L310 203.882L317 208.687L322.5 212.894L327.932 217.5L333.204 222.5L338.758 228.5L343.551 234.5L347.331 240L350.833 246L353.724 252L356.202 258.5M156 171.226L179.894 268.503M156 171.226L177.437 258.5M156 171.226L152.646 171.56L149.28 171.938L146 172.347L142.5 172.828L139 173.356L135.5 173.931L132 174.556L128.5 175.229L125.13 175.926L121.709 176.681L118.344 177.474L115 178.31L111.776 179.164L108.5 180.081L105.293 181.028L102 182.052L98.7665 183.11L95.5005 184.234L92.4297 185.343L89.3685 186.5L86.1251 187.785L83.0005 189.082L80.0005 190.384L77.0005 191.744L74.0005 193.166L71.0005 194.651L68.0005 196.204L65.0005 197.828L62.2905 199.359L59.5005 201.003L56.746 202.697L54.0005 204.462L51.4208 206.231L48.8411 208L46.1136 210L43.2845 212.18L40.6829 214.288L38.0871 216.5L35.6749 218.663L33.2027 221L30.7997 223.401L28.5005 225.834L26.2377 228.376L24.0457 231L22.0005 233.614L20.0005 236.354L18.0832 239.184L16.3205 242L14.5005 245.175L12.7793 248.5L11.1653 252L9.74851 255.5L8.50049 259.073L7.3544 263L6.50049 266.631L5.80441 270.5L5.36167 274L5.07035 278L5.00558 282L5.16642 286L5.55482 290L6.17364 294L6.90691 297.5L7.82218 301M179.894 268.503L356.202 258.5M179.894 268.503L192.447 329.956L205 391.409M179.894 268.503L205 391.409M179.894 268.503L177.437 258.5M356.202 258.5L357.664 263.5L358.753 268.503L359.528 274L359.87 279.5L359.784 285L359.27 290.5L358.319 296L356.772 302L354.677 308L352 314.022L348.748 320L345 325.786L340.5 331.721L335.5 337.422L330.433 342.5L324.5 347.766L318.087 352.813L311.4 357.5L304.5 361.827L297.068 366L290 369.561L282.5 372.956L274.5 376.19L267 378.892L259.5 381.3L251.5 383.568L243.693 385.5L236 387.147L228.5 388.518L220.5 389.737L212.5 390.711L205 391.409M7.82218 301L177.437 258.5M7.82218 301L9.09542 305L10.6167 309L12.3932 313L14.4331 317L16.5005 320.597L19.0005 324.496L21.2943 327.739L24.0005 331.243L26.5005 334.226L29.5005 337.54L32.5005 340.611L35.73 343.686L39.0005 346.59L42.5005 349.495L45.717 352L49.0005 354.413M177.437 258.5L139.5 268.006L49.0005 354.413M49.0005 354.413L52.9101 357.115L57.0005 359.761L61.2714 362.348L65.5005 364.747L70.1563 367.218L74.7624 369.5L79.5005 371.692L84.5005 373.847L89.2433 375.75L94.0005 377.53L99.0005 379.267L104 380.876L108.672 382.267L113.5 383.597L118.5 384.863L123.5 386.019L128.5 387.07L133.5 388.017L139 388.943L144 389.683L149 390.328L154 390.878L159.282 391.36L164.5 391.738L169.5 392.008L174.5 392.189L179.4 392.283L184.5 392.292L189.683 392.208L195 392.025L200 391.762L205 391.409" stroke="#88725B"/>
<path d="M186.252 227.5L225.861 199.473L222.037 264.493L186.252 294.5V227.5Z" fill="#342E35"/>
<path d="M126.093 203.902L186.252 227.5V294.5L130.501 268.468L126.093 203.902Z" fill="#201921"/>
<path d="M126.093 203.902L167.857 180L225.861 199.473L186.252 227.5L126.093 203.902Z" fill="#4B424C"/>
<path d="M130.501 268.468L186.252 294.5L187.566 298.488L128.001 270.5L130.501 268.468Z" fill="#D1D1D1"/>
<path d="M186.252 294.5L222.037 264.493L225.351 266.143L187.566 298.488L186.252 294.5Z" fill="#E9E9E9"/>
<path d="M129.501 203L167.857 180.99L222.547 199.714L185.501 225L129.501 203Z" fill="#EBEBEB"/>
<path d="M142.501 204.5L168.685 188.911L210.001 203.479L184.595 220.507L142.501 204.5Z" fill="#C0C0C0"/>
<path d="M137.501 202.5L168.685 184.126V188.911L142.501 204.5L137.501 202.5Z" fill="#D1D1D2"/>
<path d="M168.685 184.126L214.476 200.344L210.001 203.479L168.685 188.911V184.126Z" fill="#ACACAC"/>
<path d="M199.511 302.118L211.94 307.069V312.68L199.511 307.564V302.118Z" fill="#D1D1D1"/>
<path d="M211.94 307.069L223.872 308.389V314L211.94 312.68V307.069Z" fill="#D1D1D1"/>
<path d="M223.872 308.389L235.805 307.234V312.845L223.872 314V308.389Z" fill="#D1D1D1"/>
<path d="M235.805 307.234L244.257 304.924V310.535L235.805 312.845V307.234Z" fill="#D1D1D1"/>
<path d="M244.257 304.924L252.212 300.963V306.079L244.257 310.535V304.924Z" fill="#D1D1D1"/>
<path d="M252.212 300.963L257.349 295.847V299.973L252.212 306.079V300.963Z" fill="#D1D1D1"/>
<path d="M257.349 295.847L260.001 290.072L259.835 293.537L257.349 299.973V295.847Z" fill="#D1D1D1"/>
<path d="M203.322 298.488L213.266 302.118L211.94 307.069L199.511 302.118L203.322 298.488Z" fill="#E9E9E9"/>
<path d="M213.266 302.118L223.872 303.108V308.389L211.94 307.069L213.266 302.118Z" fill="#E9E9E9"/>
<path d="M223.872 303.108L233.65 301.953L235.805 307.234L223.872 308.389V303.108Z" fill="#E9E9E9"/>
<path d="M233.65 301.953L239.616 300.138L244.257 304.924L235.805 307.234L233.65 301.953Z" fill="#E9E9E9"/>
<path d="M239.616 300.138L245.417 297.003L252.212 300.963L244.257 304.924L239.616 300.138Z" fill="#E9E9E9"/>
<path d="M245.417 297.003L249.726 292.712L257.349 295.847L252.212 300.963L245.417 297.003Z" fill="#E9E9E9"/>
<path d="M249.726 292.712L251.88 287.926L260.001 290.072L257.349 295.847L249.726 292.712Z" fill="#E9E9E9"/>
<path d="M251.88 287.926V282.976L260.001 282.645V290.072L251.88 287.926Z" fill="#E9E9E9"/>
<path d="M251.88 282.976L249.394 277.53L256.355 276.21L260.001 282.645L251.88 282.976Z" fill="#E9E9E9"/>
<path d="M249.394 277.53L244.92 273.569L250.554 270.929L256.355 276.21L249.394 277.53Z" fill="#E9E9E9"/>
<path d="M244.92 273.569L236.799 269.444L240.279 265.813L250.554 270.929L244.92 273.569Z" fill="#E9E9E9"/>
<path d="M244.92 278.85L236.799 274.394V269.444L244.92 273.569V278.85Z" fill="#D1D1D1"/>
<path d="M249.394 283.306L244.92 278.85V273.569L249.394 277.53V283.306Z" fill="#D1D1D1"/>
<path d="M251.88 288.916L249.394 283.306V277.53L251.88 282.976V288.916Z" fill="#D1D1D1"/>
<path d="M113.001 305.419L115.653 306.574V313.67L113.001 311.855V305.419Z" fill="#B28E5C"/>
<path d="M115.653 306.574L119.299 306.079L119.299 313.175L115.653 313.67V306.574Z" fill="#D6B17D"/>
<path d="M119.299 306.079L120.293 303.604V311.36L119.299 313.175L119.299 306.079Z" fill="#DDBB8B"/>
<path d="M115.818 303.438L117.144 303.273L119.299 306.079L115.653 306.574L115.818 303.438Z" fill="#ECC998"/>
<path d="M114.99 302.943L115.818 303.438L115.653 306.574L113.001 305.419L114.99 302.943Z" fill="#D0B186"/>
<path d="M117.144 303.273L117.5 302L120.293 303.604L119.299 306.079L117.144 303.273Z" fill="#EDD2AC"/>
<path d="M115 302L114.99 302.943L113.001 305.419L113.001 303.604L115 302Z" fill="#BFA075"/>
<path d="M186.252 248.816V243.205L224.938 215.16L224.638 220.267L186.252 248.816Z" fill="#DDBB8B"/>
<path d="M127.512 224.214L127.139 218.747L186.252 243.205V248.816L127.512 224.214Z" fill="#D9D9D9" fill-opacity="0.7"/>
<path d="M127.512 224.214L127.139 218.747L186.252 243.205V248.816L127.512 224.214Z" fill="#B28E5C"/>
<path d="M136.925 265.239L134.501 229.5L151.611 236.539L153.001 272.5L136.925 265.239Z" fill="#B28E5C"/>
<path d="M158.729 244.03L158.501 239.5L178.285 247.854V252.281L158.729 244.03Z" fill="#D9D9D9" fill-opacity="0.7"/>
<path d="M158.729 244.03L158.501 239.5L178.285 247.854V252.281L158.729 244.03Z" fill="#B28E5C"/>
<path d="M184.417 254.756V250.48L186.252 251.305L186.252 255.691L184.417 254.756Z" fill="#D9D9D9" fill-opacity="0.7"/>
<path d="M184.417 254.756V250.48L186.252 251.305L186.252 255.691L184.417 254.756Z" fill="#B28E5C"/>
<path d="M186.252 255.691L186.252 251.305L188.56 249.667V253.778L186.252 255.691Z" fill="#DDBB8B"/>
<path d="M195.189 249.282L195.189 245.06L203.807 238.598V242.71L195.189 249.282Z" fill="#DDBB8B"/>
<path d="M210.104 238L210.104 233.798L217.728 228.139V232.251L210.104 238Z" fill="#DDBB8B"/>
<path d="M223.001 228.5L223.001 224.5L224.463 223.237L224.211 227.528L223.001 228.5Z" fill="#DDBB8B"/>
<path d="M127.955 230.712L127.648 226.21L129.956 227.166L130.229 231.491L127.955 230.712Z" fill="#D9D9D9" fill-opacity="0.7"/>
<path d="M127.955 230.712L127.648 226.21L129.956 227.166L130.229 231.491L127.955 230.712Z" fill="#B28E5C"/>
<path d="M115.653 313.67L119.299 313.175L119.5 313.5L115.5 314L115.653 313.67Z" fill="#DBDBDB"/>
<path d="M119.299 313.175L120.293 311.36H120.641L119.5 313.5L119.299 313.175Z" fill="#F2F2F2"/>
<path d="M113.001 311.855L115.651 313.67L115.5 314L112.559 311.855H113.001Z" fill="#B6B6B6"/>
<path d="M115.5 314L119.5 313.5L119.5 317.418L115.5 317.918L115.5 314Z" fill="#F1F1F1"/>
<path d="M119.5 313.5L120.641 311.36L120.641 315.087L119.5 317.418L119.5 313.5Z" fill="#FDFDFD"/>
<path d="M112.559 311.855L115.5 314L115.5 317.918L112.559 315.5L112.559 311.855Z" fill="#D0D0D0"/>
<path d="M120.293 311.36V311.085L120.641 311.36H120.293Z" fill="white"/>
<path d="M112.559 311.855L113 311.5L113.001 311.855H112.559Z" fill="#9E9E9E"/>
<path d="M331 219C330.448 219 330 219.448 330 220C330 220.552 330.448 221 331 221L331 219ZM360 220L360 221L361 221L361 220L360 220ZM360 68L361 68L361 67L360 67L360 68ZM332.525 67.2929C332.135 67.6834 332.135 68.3166 332.525 68.7071L338.889 75.0711C339.28 75.4616 339.913 75.4616 340.303 75.0711C340.694 74.6805 340.694 74.0474 340.303 73.6569L334.646 68L340.303 62.3431C340.694 61.9526 340.694 61.3195 340.303 60.9289C339.913 60.5384 339.28 60.5384 338.889 60.9289L332.525 67.2929ZM332.812 221C333.365 221 333.812 220.552 333.812 220C333.812 219.448 333.365 219 332.812 219L332.812 221ZM336.437 219C335.885 219 335.437 219.448 335.437 220C335.437 220.552 335.885 221 336.437 221L336.437 219ZM340.062 221C340.615 221 341.062 220.552 341.062 220C341.062 219.448 340.615 219 340.062 219L340.062 221ZM343.687 219C343.135 219 342.687 219.448 342.687 220C342.687 220.552 343.135 221 343.687 221L343.687 219ZM347.312 221C347.865 221 348.312 220.552 348.312 220C348.312 219.448 347.865 219 347.312 219L347.312 221ZM350.937 219C350.385 219 349.937 219.448 349.937 220C349.937 220.552 350.385 221 350.937 221L350.937 219ZM354.562 221C355.115 221 355.562 220.552 355.562 220C355.562 219.448 355.115 219 354.562 219L354.562 221ZM358.187 219C357.635 219 357.187 219.448 357.187 220C357.187 220.552 357.635 221 358.187 221L358.187 219ZM361 218C361 217.448 360.552 217 360 217C359.448 217 359 217.448 359 218L361 218ZM359 214C359 214.552 359.448 215 360 215C360.552 215 361 214.552 361 214L359 214ZM361 210C361 209.448 360.552 209 360 209C359.448 209 359 209.448 359 210L361 210ZM359 206C359 206.552 359.448 207 360 207C360.552 207 361 206.552 361 206L359 206ZM361 202C361 201.448 360.552 201 360 201C359.448 201 359 201.448 359 202L361 202ZM359 198C359 198.552 359.448 199 360 199C360.552 199 361 198.552 361 198L359 198ZM361 194C361 193.448 360.552 193 360 193C359.448 193 359 193.448 359 194L361 194ZM359 190C359 190.552 359.448 191 360 191C360.552 191 361 190.552 361 190L359 190ZM361 186C361 185.448 360.552 185 360 185C359.448 185 359 185.448 359 186L361 186ZM359 182C359 182.552 359.448 183 360 183C360.552 183 361 182.552 361 182L359 182ZM361 178C361 177.448 360.552 177 360 177C359.448 177 359 177.448 359 178L361 178ZM359 174C359 174.552 359.448 175 360 175C360.552 175 361 174.552 361 174L359 174ZM361 170C361 169.448 360.552 169 360 169C359.448 169 359 169.448 359 170L361 170ZM359 166C359 166.552 359.448 167 360 167C360.552 167 361 166.552 361 166L359 166ZM361 162C361 161.448 360.552 161 360 161C359.448 161 359 161.448 359 162L361 162ZM359 158C359 158.552 359.448 159 360 159C360.552 159 361 158.552 361 158L359 158ZM361 154C361 153.448 360.552 153 360 153C359.448 153 359 153.448 359 154L361 154ZM359 150C359 150.552 359.448 151 360 151C360.552 151 361 150.552 361 150L359 150ZM361 146C361 145.448 360.552 145 360 145C359.448 145 359 145.448 359 146L361 146ZM359 142C359 142.552 359.448 143 360 143C360.552 143 361 142.552 361 142L359 142ZM361 138C361 137.448 360.552 137 360 137C359.448 137 359 137.448 359 138L361 138ZM359 134C359 134.552 359.448 135 360 135C360.552 135 361 134.552 361 134L359 134ZM361 130C361 129.448 360.552 129 360 129C359.448 129 359 129.448 359 130L361 130ZM359 126C359 126.552 359.448 127 360 127C360.552 127 361 126.552 361 126L359 126ZM361 122C361 121.448 360.552 121 360 121C359.448 121 359 121.448 359 122L361 122ZM359 118C359 118.552 359.448 119 360 119C360.552 119 361 118.552 361 118L359 118ZM361 114C361 113.448 360.552 113 360 113C359.448 113 359 113.448 359 114L361 114ZM359 110C359 110.552 359.448 111 360 111C360.552 111 361 110.552 361 110L359 110ZM361 106C361 105.448 360.552 105 360 105C359.448 105 359 105.448 359 106L361 106ZM359 102C359 102.552 359.448 103 360 103C360.552 103 361 102.552 361 102L359 102ZM361 98C361 97.4477 360.552 97 360 97C359.448 97 359 97.4477 359 98L361 98ZM359 94C359 94.5523 359.448 95 360 95C360.552 95 361 94.5523 361 94L359 94ZM361 90C361 89.4477 360.552 89 360 89C359.448 89 359 89.4477 359 90L361 90ZM359 86C359 86.5523 359.448 87 360 87C360.552 87 361 86.5523 361 86L359 86ZM361 82C361 81.4477 360.552 81 360 81C359.448 81 359 81.4477 359 82L361 82ZM359 78C359 78.5523 359.448 79 360 79C360.552 79 361 78.5523 361 78L359 78ZM361 74C361 73.4477 360.552 73 360 73C359.448 73 359 73.4477 359 74L361 74ZM359 70C359 70.5523 359.448 71 360 71C360.552 71 361 70.5523 361 70L359 70ZM357.769 67C357.217 67 356.769 67.4477 356.769 68C356.769 68.5523 357.217 69 357.769 69L357.769 67ZM353.308 69C353.86 69 354.308 68.5523 354.308 68C354.308 67.4477 353.86 67 353.308 67L353.308 69ZM348.847 67C348.294 67 347.847 67.4477 347.847 68C347.847 68.5523 348.294 69 348.847 69L348.847 67ZM344.385 69C344.938 69 345.385 68.5523 345.385 68C345.385 67.4477 344.938 67 344.385 67L344.385 69ZM339.924 67C339.372 67 338.924 67.4477 338.924 68C338.924 68.5523 339.372 69 339.924 69L339.924 67ZM335.463 69C336.015 69 336.463 68.5523 336.463 68C336.463 67.4477 336.015 67 335.463 67L335.463 69ZM331 221L332.812 221L332.812 219L331 219L331 221ZM336.437 221L340.062 221L340.062 219L336.437 219L336.437 221ZM343.687 221L347.312 221L347.312 219L343.687 219L343.687 221ZM350.937 221L354.562 221L354.562 219L350.937 219L350.937 221ZM358.187 221L360 221L360 219L358.187 219L358.187 221ZM361 220L361 218L359 218L359 220L361 220ZM361 214L361 210L359 210L359 214L361 214ZM361 206L361 202L359 202L359 206L361 206ZM361 198L361 194L359 194L359 198L361 198ZM361 190L361 186L359 186L359 190L361 190ZM361 182L361 178L359 178L359 182L361 182ZM361 174L361 170L359 170L359 174L361 174ZM361 166L361 162L359 162L359 166L361 166ZM361 158L361 154L359 154L359 158L361 158ZM361 150L361 146L359 146L359 150L361 150ZM361 142L361 138L359 138L359 142L361 142ZM361 134L361 130L359 130L359 134L361 134ZM361 126L361 122L359 122L359 126L361 126ZM361 118L361 114L359 114L359 118L361 118ZM361 110L361 106L359 106L359 110L361 110ZM361 102L361 98L359 98L359 102L361 102ZM361 94L361 90L359 90L359 94L361 94ZM361 86L361 82L359 82L359 86L361 86ZM361 78L361 74L359 74L359 78L361 78ZM361 70L361 68L359 68L359 70L361 70ZM360 67L357.769 67L357.769 69L360 69L360 67ZM353.308 67L348.847 67L348.847 69L353.308 69L353.308 67ZM344.385 67L339.924 67L339.924 69L344.385 69L344.385 67ZM335.463 67L333.232 67L333.232 69L335.463 69L335.463 67ZM331 219C330.448 219 330 219.448 330 220C330 220.552 330.448 221 331 221L331 219ZM360 220L360 221L361 221L361 220L360 220ZM360 68L361 68L361 67L360 67L360 68ZM332.525 67.2929C332.135 67.6834 332.135 68.3166 332.525 68.7071L338.889 75.0711C339.28 75.4616 339.913 75.4616 340.303 75.0711C340.694 74.6805 340.694 74.0474 340.303 73.6569L334.646 68L340.303 62.3431C340.694 61.9526 340.694 61.3195 340.303 60.9289C339.913 60.5384 339.28 60.5384 338.889 60.9289L332.525 67.2929ZM332.812 221C333.365 221 333.812 220.552 333.812 220C333.812 219.448 333.365 219 332.812 219L332.812 221ZM336.437 219C335.885 219 335.437 219.448 335.437 220C335.437 220.552 335.885 221 336.437 221L336.437 219ZM340.062 221C340.615 221 341.062 220.552 341.062 220C341.062 219.448 340.615 219 340.062 219L340.062 221ZM343.687 219C343.135 219 342.687 219.448 342.687 220C342.687 220.552 343.135 221 343.687 221L343.687 219ZM347.312 221C347.865 221 348.312 220.552 348.312 220C348.312 219.448 347.865 219 347.312 219L347.312 221ZM350.937 219C350.385 219 349.937 219.448 349.937 220C349.937 220.552 350.385 221 350.937 221L350.937 219ZM354.562 221C355.115 221 355.562 220.552 355.562 220C355.562 219.448 355.115 219 354.562 219L354.562 221ZM358.187 219C357.635 219 357.187 219.448 357.187 220C357.187 220.552 357.635 221 358.187 221L358.187 219ZM361 218C361 217.448 360.552 217 360 217C359.448 217 359 217.448 359 218L361 218ZM359 214C359 214.552 359.448 215 360 215C360.552 215 361 214.552 361 214L359 214ZM361 210C361 209.448 360.552 209 360 209C359.448 209 359 209.448 359 210L361 210ZM359 206C359 206.552 359.448 207 360 207C360.552 207 361 206.552 361 206L359 206ZM361 202C361 201.448 360.552 201 360 201C359.448 201 359 201.448 359 202L361 202ZM359 198C359 198.552 359.448 199 360 199C360.552 199 361 198.552 361 198L359 198ZM361 194C361 193.448 360.552 193 360 193C359.448 193 359 193.448 359 194L361 194ZM359 190C359 190.552 359.448 191 360 191C360.552 191 361 190.552 361 190L359 190ZM361 186C361 185.448 360.552 185 360 185C359.448 185 359 185.448 359 186L361 186ZM359 182C359 182.552 359.448 183 360 183C360.552 183 361 182.552 361 182L359 182ZM361 178C361 177.448 360.552 177 360 177C359.448 177 359 177.448 359 178L361 178ZM359 174C359 174.552 359.448 175 360 175C360.552 175 361 174.552 361 174L359 174ZM361 170C361 169.448 360.552 169 360 169C359.448 169 359 169.448 359 170L361 170ZM359 166C359 166.552 359.448 167 360 167C360.552 167 361 166.552 361 166L359 166ZM361 162C361 161.448 360.552 161 360 161C359.448 161 359 161.448 359 162L361 162ZM359 158C359 158.552 359.448 159 360 159C360.552 159 361 158.552 361 158L359 158ZM361 154C361 153.448 360.552 153 360 153C359.448 153 359 153.448 359 154L361 154ZM359 150C359 150.552 359.448 151 360 151C360.552 151 361 150.552 361 150L359 150ZM361 146C361 145.448 360.552 145 360 145C359.448 145 359 145.448 359 146L361 146ZM359 142C359 142.552 359.448 143 360 143C360.552 143 361 142.552 361 142L359 142ZM361 138C361 137.448 360.552 137 360 137C359.448 137 359 137.448 359 138L361 138ZM359 134C359 134.552 359.448 135 360 135C360.552 135 361 134.552 361 134L359 134ZM361 130C361 129.448 360.552 129 360 129C359.448 129 359 129.448 359 130L361 130ZM359 126C359 126.552 359.448 127 360 127C360.552 127 361 126.552 361 126L359 126ZM361 122C361 121.448 360.552 121 360 121C359.448 121 359 121.448 359 122L361 122ZM359 118C359 118.552 359.448 119 360 119C360.552 119 361 118.552 361 118L359 118ZM361 114C361 113.448 360.552 113 360 113C359.448 113 359 113.448 359 114L361 114ZM359 110C359 110.552 359.448 111 360 111C360.552 111 361 110.552 361 110L359 110ZM361 106C361 105.448 360.552 105 360 105C359.448 105 359 105.448 359 106L361 106ZM359 102C359 102.552 359.448 103 360 103C360.552 103 361 102.552 361 102L359 102ZM361 98C361 97.4477 360.552 97 360 97C359.448 97 359 97.4477 359 98L361 98ZM359 94C359 94.5523 359.448 95 360 95C360.552 95 361 94.5523 361 94L359 94ZM361 90C361 89.4477 360.552 89 360 89C359.448 89 359 89.4477 359 90L361 90ZM359 86C359 86.5523 359.448 87 360 87C360.552 87 361 86.5523 361 86L359 86ZM361 82C361 81.4477 360.552 81 360 81C359.448 81 359 81.4477 359 82L361 82ZM359 78C359 78.5523 359.448 79 360 79C360.552 79 361 78.5523 361 78L359 78ZM361 74C361 73.4477 360.552 73 360 73C359.448 73 359 73.4477 359 74L361 74ZM359 70C359 70.5523 359.448 71 360 71C360.552 71 361 70.5523 361 70L359 70ZM357.769 67C357.217 67 356.769 67.4477 356.769 68C356.769 68.5523 357.217 69 357.769 69L357.769 67ZM353.308 69C353.86 69 354.308 68.5523 354.308 68C354.308 67.4477 353.86 67 353.308 67L353.308 69ZM348.847 67C348.294 67 347.847 67.4477 347.847 68C347.847 68.5523 348.294 69 348.847 69L348.847 67ZM344.385 69C344.938 69 345.385 68.5523 345.385 68C345.385 67.4477 344.938 67 344.385 67L344.385 69ZM339.924 67C339.372 67 338.924 67.4477 338.924 68C338.924 68.5523 339.372 69 339.924 69L339.924 67ZM335.463 69C336.015 69 336.463 68.5523 336.463 68C336.463 67.4477 336.015 67 335.463 67L335.463 69ZM331 221L332.812 221L332.812 219L331 219L331 221ZM336.437 221L340.062 221L340.062 219L336.437 219L336.437 221ZM343.687 221L347.312 221L347.312 219L343.687 219L343.687 221ZM350.937 221L354.562 221L354.562 219L350.937 219L350.937 221ZM358.187 221L360 221L360 219L358.187 219L358.187 221ZM361 220L361 218L359 218L359 220L361 220ZM361 214L361 210L359 210L359 214L361 214ZM361 206L361 202L359 202L359 206L361 206ZM361 198L361 194L359 194L359 198L361 198ZM361 190L361 186L359 186L359 190L361 190ZM361 182L361 178L359 178L359 182L361 182ZM361 174L361 170L359 170L359 174L361 174ZM361 166L361 162L359 162L359 166L361 166ZM361 158L361 154L359 154L359 158L361 158ZM361 150L361 146L359 146L359 150L361 150ZM361 142L361 138L359 138L359 142L361 142ZM361 134L361 130L359 130L359 134L361 134ZM361 126L361 122L359 122L359 126L361 126ZM361 118L361 114L359 114L359 118L361 118ZM361 110L361 106L359 106L359 110L361 110ZM361 102L361 98L359 98L359 102L361 102ZM361 94L361 90L359 90L359 94L361 94ZM361 86L361 82L359 82L359 86L361 86ZM361 78L361 74L359 74L359 78L361 78ZM361 70L361 68L359 68L359 70L361 70ZM360 67L357.769 67L357.769 69L360 69L360 67ZM353.308 67L348.847 67L348.847 69L353.308 69L353.308 67ZM344.385 67L339.924 67L339.924 69L344.385 69L344.385 67ZM335.463 67L333.232 67L333.232 69L335.463 69L335.463 67Z" fill="#989898"/>
<path d="M4 224L3 224L3 225L4 225L4 224ZM4 8L4 7L3 7L3 8L4 8ZM30.7071 8.70711C31.0976 8.31658 31.0976 7.68342 30.7071 7.29289L24.3431 0.928931C23.9526 0.538407 23.3195 0.538407 22.9289 0.928931C22.5384 1.31946 22.5384 1.95262 22.9289 2.34314L28.5858 8L22.9289 13.6569C22.5384 14.0474 22.5384 14.6805 22.9289 15.0711C23.3195 15.4616 23.9526 15.4616 24.3431 15.0711L30.7071 8.70711ZM27.8333 223C27.281 223 26.8333 223.448 26.8333 224C26.8333 224.552 27.281 225 27.8333 225L27.8333 223ZM23.5 225C24.0523 225 24.5 224.552 24.5 224C24.5 223.448 24.0523 223 23.5 223L23.5 225ZM19.1667 223C18.6144 223 18.1667 223.448 18.1667 224C18.1667 224.552 18.6144 225 19.1667 225L19.1667 223ZM14.8333 225C15.3856 225 15.8333 224.552 15.8333 224C15.8333 223.448 15.3856 223 14.8333 223L14.8333 225ZM10.5 223C9.94771 223 9.5 223.448 9.5 224C9.5 224.552 9.94771 225 10.5 225L10.5 223ZM6.16667 225C6.71895 225 7.16667 224.552 7.16666 224C7.16666 223.448 6.71895 223 6.16666 223L6.16667 225ZM5 222C5 221.448 4.55228 221 4 221C3.44772 221 3 221.448 3 222L5 222ZM3 218C3 218.552 3.44772 219 4 219C4.55228 219 5 218.552 5 218L3 218ZM5 214C5 213.448 4.55228 213 4 213C3.44772 213 3 213.448 3 214L5 214ZM3 210C3 210.552 3.44772 211 4 211C4.55228 211 5 210.552 5 210L3 210ZM5 206C5 205.448 4.55228 205 4 205C3.44772 205 3 205.448 3 206L5 206ZM3 202C3 202.552 3.44772 203 4 203C4.55228 203 5 202.552 5 202L3 202ZM5 198C5 197.448 4.55228 197 4 197C3.44772 197 3 197.448 3 198L5 198ZM3 194C3 194.552 3.44772 195 4 195C4.55228 195 5 194.552 5 194L3 194ZM5 190C5 189.448 4.55228 189 4 189C3.44772 189 3 189.448 3 190L5 190ZM3 186C3 186.552 3.44772 187 4 187C4.55228 187 5 186.552 5 186L3 186ZM5 182C5 181.448 4.55228 181 4 181C3.44772 181 3 181.448 3 182L5 182ZM3 178C3 178.552 3.44772 179 4 179C4.55228 179 5 178.552 5 178L3 178ZM5 174C5 173.448 4.55228 173 4 173C3.44772 173 3 173.448 3 174L5 174ZM3 170C3 170.552 3.44772 171 4 171C4.55228 171 5 170.552 5 170L3 170ZM5 166C5 165.448 4.55228 165 4 165C3.44772 165 3 165.448 3 166L5 166ZM3 162C3 162.552 3.44772 163 4 163C4.55228 163 5 162.552 5 162L3 162ZM5 158C5 157.448 4.55228 157 4 157C3.44772 157 3 157.448 3 158L5 158ZM3 154C3 154.552 3.44772 155 4 155C4.55228 155 5 154.552 5 154L3 154ZM5 150C5 149.448 4.55228 149 4 149C3.44772 149 3 149.448 3 150L5 150ZM3 146C3 146.552 3.44772 147 4 147C4.55228 147 5 146.552 5 146L3 146ZM5 142C5 141.448 4.55229 141 4 141C3.44772 141 3 141.448 3 142L5 142ZM3 138C3 138.552 3.44772 139 4 139C4.55229 139 5 138.552 5 138L3 138ZM5 134C5 133.448 4.55229 133 4 133C3.44772 133 3 133.448 3 134L5 134ZM3 130C3 130.552 3.44772 131 4 131C4.55229 131 5 130.552 5 130L3 130ZM5 126C5 125.448 4.55229 125 4 125C3.44772 125 3 125.448 3 126L5 126ZM3 122C3 122.552 3.44772 123 4 123C4.55229 123 5 122.552 5 122L3 122ZM5 118C5 117.448 4.55229 117 4 117C3.44772 117 3 117.448 3 118L5 118ZM3 114C3 114.552 3.44772 115 4 115C4.55229 115 5 114.552 5 114L3 114ZM5 110C5 109.448 4.55229 109 4 109C3.44772 109 3 109.448 3 110L5 110ZM3 106C3 106.552 3.44772 107 4 107C4.55229 107 5 106.552 5 106L3 106ZM5 102C5 101.448 4.55229 101 4 101C3.44772 101 3 101.448 3 102L5 102ZM3 98C3 98.5523 3.44772 99 4 99C4.55229 99 5 98.5523 5 98L3 98ZM5 94C5 93.4477 4.55229 93 4 93C3.44772 93 3 93.4477 3 94L5 94ZM3 90C3 90.5523 3.44772 91 4 91C4.55229 91 5 90.5523 5 90L3 90ZM5 86C5 85.4477 4.55229 85 4 85C3.44772 85 3 85.4477 3 86L5 86ZM3 82C3 82.5523 3.44772 83 4 83C4.55229 83 5 82.5523 5 82L3 82ZM5 78C5 77.4477 4.55229 77 4 77C3.44772 77 3 77.4477 3 78L5 78ZM3 74C3 74.5523 3.44772 75 4 75C4.55229 75 5 74.5523 5 74L3 74ZM5 70C5 69.4477 4.55229 69 4 69C3.44772 69 3 69.4477 3 70L5 70ZM3 66C3 66.5523 3.44772 67 4 67C4.55229 67 5 66.5523 5 66L3 66ZM5 62C5 61.4477 4.55229 61 4 61C3.44772 61 3 61.4477 3 62L5 62ZM3 58C3 58.5523 3.44772 59 4 59C4.55229 59 5 58.5523 5 58L3 58ZM5 54C5 53.4477 4.55229 53 4 53C3.44772 53 3 53.4477 3 54L5 54ZM3 50C3 50.5523 3.44772 51 4 51C4.55229 51 5 50.5523 5 50L3 50ZM5 46C5 45.4477 4.55229 45 4 45C3.44772 45 3 45.4477 3 46L5 46ZM3 42C3 42.5523 3.44772 43 4 43C4.55229 43 5 42.5523 5 42L3 42ZM5 38C5 37.4477 4.55229 37 4 37C3.44772 37 3 37.4477 3 38L5 38ZM3 34C3 34.5523 3.44772 35 4 35C4.55229 35 5 34.5523 5 34L3 34ZM5 30C5 29.4477 4.55229 29 4 29C3.44772 29 3 29.4477 3 30L5 30ZM3 26C3 26.5523 3.44772 27 4 27C4.55229 27 5 26.5523 5 26L3 26ZM5 22C5 21.4477 4.55229 21 4 21C3.44772 21 3 21.4477 3 22L5 22ZM3 18C3 18.5523 3.44772 19 4 19C4.55229 19 5 18.5523 5 18L3 18ZM5 14C5 13.4477 4.55229 13 4 13C3.44772 13 3 13.4477 3 14L5 14ZM3 10C3 10.5523 3.44772 11 4 11C4.55229 11 5 10.5523 5 10L3 10ZM6.16667 9C6.71895 9 7.16667 8.55228 7.16667 8C7.16667 7.44772 6.71895 7 6.16667 7L6.16667 9ZM10.5 7C9.94772 7 9.5 7.44772 9.5 8C9.5 8.55228 9.94772 9 10.5 9L10.5 7ZM14.8333 9C15.3856 9 15.8333 8.55228 15.8333 8C15.8333 7.44771 15.3856 7 14.8333 7L14.8333 9ZM19.1667 7C18.6144 7 18.1667 7.44771 18.1667 8C18.1667 8.55228 18.6144 9 19.1667 9L19.1667 7ZM23.5 9C24.0523 9 24.5 8.55228 24.5 8C24.5 7.44771 24.0523 7 23.5 7L23.5 9ZM27.8333 7C27.2811 7 26.8333 7.44771 26.8333 8C26.8333 8.55228 27.2811 9 27.8333 9L27.8333 7ZM30 223L27.8333 223L27.8333 225L30 225L30 223ZM23.5 223L19.1667 223L19.1667 225L23.5 225L23.5 223ZM14.8333 223L10.5 223L10.5 225L14.8333 225L14.8333 223ZM6.16666 223L4 223L4 225L6.16667 225L6.16666 223ZM5 224L5 222L3 222L3 224L5 224ZM5 218L5 214L3 214L3 218L5 218ZM5 210L5 206L3 206L3 210L5 210ZM5 202L5 198L3 198L3 202L5 202ZM5 194L5 190L3 190L3 194L5 194ZM5 186L5 182L3 182L3 186L5 186ZM5 178L5 174L3 174L3 178L5 178ZM5 170L5 166L3 166L3 170L5 170ZM5 162L5 158L3 158L3 162L5 162ZM5 154L5 150L3 150L3 154L5 154ZM5 146L5 142L3 142L3 146L5 146ZM5 138L5 134L3 134L3 138L5 138ZM5 130L5 126L3 126L3 130L5 130ZM5 122L5 118L3 118L3 122L5 122ZM5 114L5 110L3 110L3 114L5 114ZM5 106L5 102L3 102L3 106L5 106ZM5 98L5 94L3 94L3 98L5 98ZM5 90L5 86L3 86L3 90L5 90ZM5 82L5 78L3 78L3 82L5 82ZM5 74L5 70L3 70L3 74L5 74ZM5 66L5 62L3 62L3 66L5 66ZM5 58L5 54L3 54L3 58L5 58ZM5 50L5 46L3 46L3 50L5 50ZM5 42L5 38L3 38L3 42L5 42ZM5 34L5 30L3 30L3 34L5 34ZM5 26L5 22L3 22L3 26L5 26ZM5 18L5 14L3 14L3 18L5 18ZM5 10L5 8L3 8L3 10L5 10ZM4 9L6.16667 9L6.16667 7L4 7L4 9ZM10.5 9L14.8333 9L14.8333 7L10.5 7L10.5 9ZM19.1667 9L23.5 9L23.5 7L19.1667 7L19.1667 9ZM27.8333 9L30 9L30 7L27.8333 7L27.8333 9ZM4 224L3 224L3 225L4 225L4 224ZM4 8L4 7L3 7L3 8L4 8ZM30.7071 8.70711C31.0976 8.31658 31.0976 7.68342 30.7071 7.29289L24.3431 0.928931C23.9526 0.538407 23.3195 0.538407 22.9289 0.928931C22.5384 1.31946 22.5384 1.95262 22.9289 2.34314L28.5858 8L22.9289 13.6569C22.5384 14.0474 22.5384 14.6805 22.9289 15.0711C23.3195 15.4616 23.9526 15.4616 24.3431 15.0711L30.7071 8.70711ZM27.8333 223C27.281 223 26.8333 223.448 26.8333 224C26.8333 224.552 27.281 225 27.8333 225L27.8333 223ZM23.5 225C24.0523 225 24.5 224.552 24.5 224C24.5 223.448 24.0523 223 23.5 223L23.5 225ZM19.1667 223C18.6144 223 18.1667 223.448 18.1667 224C18.1667 224.552 18.6144 225 19.1667 225L19.1667 223ZM14.8333 225C15.3856 225 15.8333 224.552 15.8333 224C15.8333 223.448 15.3856 223 14.8333 223L14.8333 225ZM10.5 223C9.94771 223 9.5 223.448 9.5 224C9.5 224.552 9.94771 225 10.5 225L10.5 223ZM6.16667 225C6.71895 225 7.16667 224.552 7.16666 224C7.16666 223.448 6.71895 223 6.16666 223L6.16667 225ZM5 222C5 221.448 4.55228 221 4 221C3.44772 221 3 221.448 3 222L5 222ZM3 218C3 218.552 3.44772 219 4 219C4.55228 219 5 218.552 5 218L3 218ZM5 214C5 213.448 4.55228 213 4 213C3.44772 213 3 213.448 3 214L5 214ZM3 210C3 210.552 3.44772 211 4 211C4.55228 211 5 210.552 5 210L3 210ZM5 206C5 205.448 4.55228 205 4 205C3.44772 205 3 205.448 3 206L5 206ZM3 202C3 202.552 3.44772 203 4 203C4.55228 203 5 202.552 5 202L3 202ZM5 198C5 197.448 4.55228 197 4 197C3.44772 197 3 197.448 3 198L5 198ZM3 194C3 194.552 3.44772 195 4 195C4.55228 195 5 194.552 5 194L3 194ZM5 190C5 189.448 4.55228 189 4 189C3.44772 189 3 189.448 3 190L5 190ZM3 186C3 186.552 3.44772 187 4 187C4.55228 187 5 186.552 5 186L3 186ZM5 182C5 181.448 4.55228 181 4 181C3.44772 181 3 181.448 3 182L5 182ZM3 178C3 178.552 3.44772 179 4 179C4.55228 179 5 178.552 5 178L3 178ZM5 174C5 173.448 4.55228 173 4 173C3.44772 173 3 173.448 3 174L5 174ZM3 170C3 170.552 3.44772 171 4 171C4.55228 171 5 170.552 5 170L3 170ZM5 166C5 165.448 4.55228 165 4 165C3.44772 165 3 165.448 3 166L5 166ZM3 162C3 162.552 3.44772 163 4 163C4.55228 163 5 162.552 5 162L3 162ZM5 158C5 157.448 4.55228 157 4 157C3.44772 157 3 157.448 3 158L5 158ZM3 154C3 154.552 3.44772 155 4 155C4.55228 155 5 154.552 5 154L3 154ZM5 150C5 149.448 4.55228 149 4 149C3.44772 149 3 149.448 3 150L5 150ZM3 146C3 146.552 3.44772 147 4 147C4.55228 147 5 146.552 5 146L3 146ZM5 142C5 141.448 4.55229 141 4 141C3.44772 141 3 141.448 3 142L5 142ZM3 138C3 138.552 3.44772 139 4 139C4.55229 139 5 138.552 5 138L3 138ZM5 134C5 133.448 4.55229 133 4 133C3.44772 133 3 133.448 3 134L5 134ZM3 130C3 130.552 3.44772 131 4 131C4.55229 131 5 130.552 5 130L3 130ZM5 126C5 125.448 4.55229 125 4 125C3.44772 125 3 125.448 3 126L5 126ZM3 122C3 122.552 3.44772 123 4 123C4.55229 123 5 122.552 5 122L3 122ZM5 118C5 117.448 4.55229 117 4 117C3.44772 117 3 117.448 3 118L5 118ZM3 114C3 114.552 3.44772 115 4 115C4.55229 115 5 114.552 5 114L3 114ZM5 110C5 109.448 4.55229 109 4 109C3.44772 109 3 109.448 3 110L5 110ZM3 106C3 106.552 3.44772 107 4 107C4.55229 107 5 106.552 5 106L3 106ZM5 102C5 101.448 4.55229 101 4 101C3.44772 101 3 101.448 3 102L5 102ZM3 98C3 98.5523 3.44772 99 4 99C4.55229 99 5 98.5523 5 98L3 98ZM5 94C5 93.4477 4.55229 93 4 93C3.44772 93 3 93.4477 3 94L5 94ZM3 90C3 90.5523 3.44772 91 4 91C4.55229 91 5 90.5523 5 90L3 90ZM5 86C5 85.4477 4.55229 85 4 85C3.44772 85 3 85.4477 3 86L5 86ZM3 82C3 82.5523 3.44772 83 4 83C4.55229 83 5 82.5523 5 82L3 82ZM5 78C5 77.4477 4.55229 77 4 77C3.44772 77 3 77.4477 3 78L5 78ZM3 74C3 74.5523 3.44772 75 4 75C4.55229 75 5 74.5523 5 74L3 74ZM5 70C5 69.4477 4.55229 69 4 69C3.44772 69 3 69.4477 3 70L5 70ZM3 66C3 66.5523 3.44772 67 4 67C4.55229 67 5 66.5523 5 66L3 66ZM5 62C5 61.4477 4.55229 61 4 61C3.44772 61 3 61.4477 3 62L5 62ZM3 58C3 58.5523 3.44772 59 4 59C4.55229 59 5 58.5523 5 58L3 58ZM5 54C5 53.4477 4.55229 53 4 53C3.44772 53 3 53.4477 3 54L5 54ZM3 50C3 50.5523 3.44772 51 4 51C4.55229 51 5 50.5523 5 50L3 50ZM5 46C5 45.4477 4.55229 45 4 45C3.44772 45 3 45.4477 3 46L5 46ZM3 42C3 42.5523 3.44772 43 4 43C4.55229 43 5 42.5523 5 42L3 42ZM5 38C5 37.4477 4.55229 37 4 37C3.44772 37 3 37.4477 3 38L5 38ZM3 34C3 34.5523 3.44772 35 4 35C4.55229 35 5 34.5523 5 34L3 34ZM5 30C5 29.4477 4.55229 29 4 29C3.44772 29 3 29.4477 3 30L5 30ZM3 26C3 26.5523 3.44772 27 4 27C4.55229 27 5 26.5523 5 26L3 26ZM5 22C5 21.4477 4.55229 21 4 21C3.44772 21 3 21.4477 3 22L5 22ZM3 18C3 18.5523 3.44772 19 4 19C4.55229 19 5 18.5523 5 18L3 18ZM5 14C5 13.4477 4.55229 13 4 13C3.44772 13 3 13.4477 3 14L5 14ZM3 10C3 10.5523 3.44772 11 4 11C4.55229 11 5 10.5523 5 10L3 10ZM6.16667 9C6.71895 9 7.16667 8.55228 7.16667 8C7.16667 7.44772 6.71895 7 6.16667 7L6.16667 9ZM10.5 7C9.94772 7 9.5 7.44772 9.5 8C9.5 8.55228 9.94772 9 10.5 9L10.5 7ZM14.8333 9C15.3856 9 15.8333 8.55228 15.8333 8C15.8333 7.44771 15.3856 7 14.8333 7L14.8333 9ZM19.1667 7C18.6144 7 18.1667 7.44771 18.1667 8C18.1667 8.55228 18.6144 9 19.1667 9L19.1667 7ZM23.5 9C24.0523 9 24.5 8.55228 24.5 8C24.5 7.44771 24.0523 7 23.5 7L23.5 9ZM27.8333 7C27.2811 7 26.8333 7.44771 26.8333 8C26.8333 8.55228 27.2811 9 27.8333 9L27.8333 7ZM30 223L27.8333 223L27.8333 225L30 225L30 223ZM23.5 223L19.1667 223L19.1667 225L23.5 225L23.5 223ZM14.8333 223L10.5 223L10.5 225L14.8333 225L14.8333 223ZM6.16666 223L4 223L4 225L6.16667 225L6.16666 223ZM5 224L5 222L3 222L3 224L5 224ZM5 218L5 214L3 214L3 218L5 218ZM5 210L5 206L3 206L3 210L5 210ZM5 202L5 198L3 198L3 202L5 202ZM5 194L5 190L3 190L3 194L5 194ZM5 186L5 182L3 182L3 186L5 186ZM5 178L5 174L3 174L3 178L5 178ZM5 170L5 166L3 166L3 170L5 170ZM5 162L5 158L3 158L3 162L5 162ZM5 154L5 150L3 150L3 154L5 154ZM5 146L5 142L3 142L3 146L5 146ZM5 138L5 134L3 134L3 138L5 138ZM5 130L5 126L3 126L3 130L5 130ZM5 122L5 118L3 118L3 122L5 122ZM5 114L5 110L3 110L3 114L5 114ZM5 106L5 102L3 102L3 106L5 106ZM5 98L5 94L3 94L3 98L5 98ZM5 90L5 86L3 86L3 90L5 90ZM5 82L5 78L3 78L3 82L5 82ZM5 74L5 70L3 70L3 74L5 74ZM5 66L5 62L3 62L3 66L5 66ZM5 58L5 54L3 54L3 58L5 58ZM5 50L5 46L3 46L3 50L5 50ZM5 42L5 38L3 38L3 42L5 42ZM5 34L5 30L3 30L3 34L5 34ZM5 26L5 22L3 22L3 26L5 26ZM5 18L5 14L3 14L3 18L5 18ZM5 10L5 8L3 8L3 10L5 10ZM4 9L6.16667 9L6.16667 7L4 7L4 9ZM10.5 9L14.8333 9L14.8333 7L10.5 7L10.5 9ZM19.1667 9L23.5 9L23.5 7L19.1667 7L19.1667 9ZM27.8333 9L30 9L30 7L27.8333 7L27.8333 9Z" fill="#989898"/>
<path d="M357 510L357 511L358 511L358 510L357 510ZM332.716 509.293C332.326 509.683 332.326 510.317 332.716 510.707L339.08 517.071C339.471 517.462 340.104 517.462 340.494 517.071C340.885 516.681 340.885 516.047 340.494 515.657L334.838 510L340.494 504.343C340.885 503.953 340.885 503.319 340.494 502.929C340.104 502.538 339.471 502.538 339.08 502.929L332.716 509.293ZM323 349C322.448 349 322 349.448 322 350C322 350.552 322.448 351 323 351L323 349ZM357 350L358 350L358 349L357 349L357 350ZM325.125 351C325.677 351 326.125 350.552 326.125 350C326.125 349.448 325.677 349 325.125 349L325.125 351ZM329.375 349C328.823 349 328.375 349.448 328.375 350C328.375 350.552 328.823 351 329.375 351L329.375 349ZM333.625 351C334.177 351 334.625 350.552 334.625 350C334.625 349.448 334.177 349 333.625 349L333.625 351ZM337.875 349C337.323 349 336.875 349.448 336.875 350C336.875 350.552 337.323 351 337.875 351L337.875 349ZM342.125 351C342.677 351 343.125 350.552 343.125 350C343.125 349.448 342.677 349 342.125 349L342.125 351ZM346.375 349C345.823 349 345.375 349.448 345.375 350C345.375 350.552 345.823 351 346.375 351L346.375 349ZM350.625 351C351.177 351 351.625 350.552 351.625 350C351.625 349.448 351.177 349 350.625 349L350.625 351ZM354.875 349C354.323 349 353.875 349.448 353.875 350C353.875 350.552 354.323 351 354.875 351L354.875 349ZM356 352C356 352.552 356.448 353 357 353C357.552 353 358 352.552 358 352L356 352ZM358 356C358 355.448 357.552 355 357 355C356.448 355 356 355.448 356 356L358 356ZM356 360C356 360.552 356.448 361 357 361C357.552 361 358 360.552 358 360L356 360ZM358 364C358 363.448 357.552 363 357 363C356.448 363 356 363.448 356 364L358 364ZM356 368C356 368.552 356.448 369 357 369C357.552 369 358 368.552 358 368L356 368ZM358 372C358 371.448 357.552 371 357 371C356.448 371 356 371.448 356 372L358 372ZM356 376C356 376.552 356.448 377 357 377C357.552 377 358 376.552 358 376L356 376ZM358 380C358 379.448 357.552 379 357 379C356.448 379 356 379.448 356 380L358 380ZM356 384C356 384.552 356.448 385 357 385C357.552 385 358 384.552 358 384L356 384ZM358 388C358 387.448 357.552 387 357 387C356.448 387 356 387.448 356 388L358 388ZM356 392C356 392.552 356.448 393 357 393C357.552 393 358 392.552 358 392L356 392ZM358 396C358 395.448 357.552 395 357 395C356.448 395 356 395.448 356 396L358 396ZM356 400C356 400.552 356.448 401 357 401C357.552 401 358 400.552 358 400L356 400ZM358 404C358 403.448 357.552 403 357 403C356.448 403 356 403.448 356 404L358 404ZM356 408C356 408.552 356.448 409 357 409C357.552 409 358 408.552 358 408L356 408ZM358 412C358 411.448 357.552 411 357 411C356.448 411 356 411.448 356 412L358 412ZM356 416C356 416.552 356.448 417 357 417C357.552 417 358 416.552 358 416L356 416ZM358 420C358 419.448 357.552 419 357 419C356.448 419 356 419.448 356 420L358 420ZM356 424C356 424.552 356.448 425 357 425C357.552 425 358 424.552 358 424L356 424ZM358 428C358 427.448 357.552 427 357 427C356.448 427 356 427.448 356 428L358 428ZM356 432C356 432.552 356.448 433 357 433C357.552 433 358 432.552 358 432L356 432ZM358 436C358 435.448 357.552 435 357 435C356.448 435 356 435.448 356 436L358 436ZM356 440C356 440.552 356.448 441 357 441C357.552 441 358 440.552 358 440L356 440ZM358 444C358 443.448 357.552 443 357 443C356.448 443 356 443.448 356 444L358 444ZM356 448C356 448.552 356.448 449 357 449C357.552 449 358 448.552 358 448L356 448ZM358 452C358 451.448 357.552 451 357 451C356.448 451 356 451.448 356 452L358 452ZM356 456C356 456.552 356.448 457 357 457C357.552 457 358 456.552 358 456L356 456ZM358 460C358 459.448 357.552 459 357 459C356.448 459 356 459.448 356 460L358 460ZM356 464C356 464.552 356.448 465 357 465C357.552 465 358 464.552 358 464L356 464ZM358 468C358 467.448 357.552 467 357 467C356.448 467 356 467.448 356 468L358 468ZM356 472C356 472.552 356.448 473 357 473C357.552 473 358 472.552 358 472L356 472ZM358 476C358 475.448 357.552 475 357 475C356.448 475 356 475.448 356 476L358 476ZM356 480C356 480.552 356.448 481 357 481C357.552 481 358 480.552 358 480L356 480ZM358 484C358 483.448 357.552 483 357 483C356.448 483 356 483.448 356 484L358 484ZM356 488C356 488.552 356.448 489 357 489C357.552 489 358 488.552 358 488L356 488ZM358 492C358 491.448 357.552 491 357 491C356.448 491 356 491.448 356 492L358 492ZM356 496C356 496.552 356.448 497 357 497C357.552 497 358 496.552 358 496L356 496ZM358 500C358 499.448 357.552 499 357 499C356.448 499 356 499.448 356 500L358 500ZM356 504C356 504.552 356.448 505 357 505C357.552 505 358 504.552 358 504L356 504ZM358 508C358 507.448 357.552 507 357 507C356.448 507 356 507.448 356 508L358 508ZM355.035 509C354.483 509 354.035 509.448 354.035 510C354.035 510.552 354.483 511 355.035 511L355.035 509ZM351.106 511C351.658 511 352.106 510.552 352.106 510C352.106 509.448 351.658 509 351.106 509L351.106 511ZM347.176 509C346.624 509 346.176 509.448 346.176 510C346.176 510.552 346.624 511 347.176 511L347.176 509ZM343.247 511C343.799 511 344.247 510.552 344.247 510C344.247 509.448 343.799 509 343.247 509L343.247 511ZM339.317 509C338.765 509 338.317 509.448 338.317 510C338.317 510.552 338.765 511 339.317 511L339.317 509ZM335.388 511C335.94 511 336.388 510.552 336.388 510C336.388 509.448 335.94 509 335.388 509L335.388 511ZM323 351L325.125 351L325.125 349L323 349L323 351ZM329.375 351L333.625 351L333.625 349L329.375 349L329.375 351ZM337.875 351L342.125 351L342.125 349L337.875 349L337.875 351ZM346.375 351L350.625 351L350.625 349L346.375 349L346.375 351ZM354.875 351L357 351L357 349L354.875 349L354.875 351ZM356 350L356 352L358 352L358 350L356 350ZM356 356L356 360L358 360L358 356L356 356ZM356 364L356 368L358 368L358 364L356 364ZM356 372L356 376L358 376L358 372L356 372ZM356 380L356 384L358 384L358 380L356 380ZM356 388L356 392L358 392L358 388L356 388ZM356 396L356 400L358 400L358 396L356 396ZM356 404L356 408L358 408L358 404L356 404ZM356 412L356 416L358 416L358 412L356 412ZM356 420L356 424L358 424L358 420L356 420ZM356 428L356 432L358 432L358 428L356 428ZM356 436L356 440L358 440L358 436L356 436ZM356 444L356 448L358 448L358 444L356 444ZM356 452L356 456L358 456L358 452L356 452ZM356 460L356 464L358 464L358 460L356 460ZM356 468L356 472L358 472L358 468L356 468ZM356 476L356 480L358 480L358 476L356 476ZM356 484L356 488L358 488L358 484L356 484ZM356 492L356 496L358 496L358 492L356 492ZM356 500L356 504L358 504L358 500L356 500ZM356 508L356 510L358 510L358 508L356 508ZM357 509L355.035 509L355.035 511L357 511L357 509ZM351.106 509L347.176 509L347.176 511L351.106 511L351.106 509ZM343.247 509L339.317 509L339.317 511L343.247 511L343.247 509ZM335.388 509L333.423 509L333.423 511L335.388 511L335.388 509ZM357 510L357 511L358 511L358 510L357 510ZM332.716 509.293C332.326 509.683 332.326 510.317 332.716 510.707L339.08 517.071C339.471 517.462 340.104 517.462 340.494 517.071C340.885 516.681 340.885 516.047 340.494 515.657L334.838 510L340.494 504.343C340.885 503.953 340.885 503.319 340.494 502.929C340.104 502.538 339.471 502.538 339.08 502.929L332.716 509.293ZM323 349C322.448 349 322 349.448 322 350C322 350.552 322.448 351 323 351L323 349ZM357 350L358 350L358 349L357 349L357 350ZM325.125 351C325.677 351 326.125 350.552 326.125 350C326.125 349.448 325.677 349 325.125 349L325.125 351ZM329.375 349C328.823 349 328.375 349.448 328.375 350C328.375 350.552 328.823 351 329.375 351L329.375 349ZM333.625 351C334.177 351 334.625 350.552 334.625 350C334.625 349.448 334.177 349 333.625 349L333.625 351ZM337.875 349C337.323 349 336.875 349.448 336.875 350C336.875 350.552 337.323 351 337.875 351L337.875 349ZM342.125 351C342.677 351 343.125 350.552 343.125 350C343.125 349.448 342.677 349 342.125 349L342.125 351ZM346.375 349C345.823 349 345.375 349.448 345.375 350C345.375 350.552 345.823 351 346.375 351L346.375 349ZM350.625 351C351.177 351 351.625 350.552 351.625 350C351.625 349.448 351.177 349 350.625 349L350.625 351ZM354.875 349C354.323 349 353.875 349.448 353.875 350C353.875 350.552 354.323 351 354.875 351L354.875 349ZM356 352C356 352.552 356.448 353 357 353C357.552 353 358 352.552 358 352L356 352ZM358 356C358 355.448 357.552 355 357 355C356.448 355 356 355.448 356 356L358 356ZM356 360C356 360.552 356.448 361 357 361C357.552 361 358 360.552 358 360L356 360ZM358 364C358 363.448 357.552 363 357 363C356.448 363 356 363.448 356 364L358 364ZM356 368C356 368.552 356.448 369 357 369C357.552 369 358 368.552 358 368L356 368ZM358 372C358 371.448 357.552 371 357 371C356.448 371 356 371.448 356 372L358 372ZM356 376C356 376.552 356.448 377 357 377C357.552 377 358 376.552 358 376L356 376ZM358 380C358 379.448 357.552 379 357 379C356.448 379 356 379.448 356 380L358 380ZM356 384C356 384.552 356.448 385 357 385C357.552 385 358 384.552 358 384L356 384ZM358 388C358 387.448 357.552 387 357 387C356.448 387 356 387.448 356 388L358 388ZM356 392C356 392.552 356.448 393 357 393C357.552 393 358 392.552 358 392L356 392ZM358 396C358 395.448 357.552 395 357 395C356.448 395 356 395.448 356 396L358 396ZM356 400C356 400.552 356.448 401 357 401C357.552 401 358 400.552 358 400L356 400ZM358 404C358 403.448 357.552 403 357 403C356.448 403 356 403.448 356 404L358 404ZM356 408C356 408.552 356.448 409 357 409C357.552 409 358 408.552 358 408L356 408ZM358 412C358 411.448 357.552 411 357 411C356.448 411 356 411.448 356 412L358 412ZM356 416C356 416.552 356.448 417 357 417C357.552 417 358 416.552 358 416L356 416ZM358 420C358 419.448 357.552 419 357 419C356.448 419 356 419.448 356 420L358 420ZM356 424C356 424.552 356.448 425 357 425C357.552 425 358 424.552 358 424L356 424ZM358 428C358 427.448 357.552 427 357 427C356.448 427 356 427.448 356 428L358 428ZM356 432C356 432.552 356.448 433 357 433C357.552 433 358 432.552 358 432L356 432ZM358 436C358 435.448 357.552 435 357 435C356.448 435 356 435.448 356 436L358 436ZM356 440C356 440.552 356.448 441 357 441C357.552 441 358 440.552 358 440L356 440ZM358 444C358 443.448 357.552 443 357 443C356.448 443 356 443.448 356 444L358 444ZM356 448C356 448.552 356.448 449 357 449C357.552 449 358 448.552 358 448L356 448ZM358 452C358 451.448 357.552 451 357 451C356.448 451 356 451.448 356 452L358 452ZM356 456C356 456.552 356.448 457 357 457C357.552 457 358 456.552 358 456L356 456ZM358 460C358 459.448 357.552 459 357 459C356.448 459 356 459.448 356 460L358 460ZM356 464C356 464.552 356.448 465 357 465C357.552 465 358 464.552 358 464L356 464ZM358 468C358 467.448 357.552 467 357 467C356.448 467 356 467.448 356 468L358 468ZM356 472C356 472.552 356.448 473 357 473C357.552 473 358 472.552 358 472L356 472ZM358 476C358 475.448 357.552 475 357 475C356.448 475 356 475.448 356 476L358 476ZM356 480C356 480.552 356.448 481 357 481C357.552 481 358 480.552 358 480L356 480ZM358 484C358 483.448 357.552 483 357 483C356.448 483 356 483.448 356 484L358 484ZM356 488C356 488.552 356.448 489 357 489C357.552 489 358 488.552 358 488L356 488ZM358 492C358 491.448 357.552 491 357 491C356.448 491 356 491.448 356 492L358 492ZM356 496C356 496.552 356.448 497 357 497C357.552 497 358 496.552 358 496L356 496ZM358 500C358 499.448 357.552 499 357 499C356.448 499 356 499.448 356 500L358 500ZM356 504C356 504.552 356.448 505 357 505C357.552 505 358 504.552 358 504L356 504ZM358 508C358 507.448 357.552 507 357 507C356.448 507 356 507.448 356 508L358 508ZM355.035 509C354.483 509 354.035 509.448 354.035 510C354.035 510.552 354.483 511 355.035 511L355.035 509ZM351.106 511C351.658 511 352.106 510.552 352.106 510C352.106 509.448 351.658 509 351.106 509L351.106 511ZM347.176 509C346.624 509 346.176 509.448 346.176 510C346.176 510.552 346.624 511 347.176 511L347.176 509ZM343.247 511C343.799 511 344.247 510.552 344.247 510C344.247 509.448 343.799 509 343.247 509L343.247 511ZM339.317 509C338.765 509 338.317 509.448 338.317 510C338.317 510.552 338.765 511 339.317 511L339.317 509ZM335.388 511C335.94 511 336.388 510.552 336.388 510C336.388 509.448 335.94 509 335.388 509L335.388 511ZM323 351L325.125 351L325.125 349L323 349L323 351ZM329.375 351L333.625 351L333.625 349L329.375 349L329.375 351ZM337.875 351L342.125 351L342.125 349L337.875 349L337.875 351ZM346.375 351L350.625 351L350.625 349L346.375 349L346.375 351ZM354.875 351L357 351L357 349L354.875 349L354.875 351ZM356 350L356 352L358 352L358 350L356 350ZM356 356L356 360L358 360L358 356L356 356ZM356 364L356 368L358 368L358 364L356 364ZM356 372L356 376L358 376L358 372L356 372ZM356 380L356 384L358 384L358 380L356 380ZM356 388L356 392L358 392L358 388L356 388ZM356 396L356 400L358 400L358 396L356 396ZM356 404L356 408L358 408L358 404L356 404ZM356 412L356 416L358 416L358 412L356 412ZM356 420L356 424L358 424L358 420L356 420ZM356 428L356 432L358 432L358 428L356 428ZM356 436L356 440L358 440L358 436L356 436ZM356 444L356 448L358 448L358 444L356 444ZM356 452L356 456L358 456L358 452L356 452ZM356 460L356 464L358 464L358 460L356 460ZM356 468L356 472L358 472L358 468L356 468ZM356 476L356 480L358 480L358 476L356 476ZM356 484L356 488L358 488L358 484L356 484ZM356 492L356 496L358 496L358 492L356 492ZM356 500L356 504L358 504L358 500L356 500ZM356 508L356 510L358 510L358 508L356 508ZM357 509L355.035 509L355.035 511L357 511L357 509ZM351.106 509L347.176 509L347.176 511L351.106 511L351.106 509ZM343.247 509L339.317 509L339.317 511L343.247 511L343.247 509ZM335.388 509L333.423 509L333.423 511L335.388 511L335.388 509Z" fill="#989898"/>
<path d="M27.4562 337C28.0085 337 28.4562 336.552 28.4562 336C28.4562 335.448 28.0085 335 27.4562 335L27.4562 337ZM1.00001 336L1.00001 335L1.14346e-05 335L1.14441e-05 336L1.00001 336ZM1.00001 623L1.41577e-05 623L1.41672e-05 624L1.00001 624L1.00001 623ZM30.7071 623.707C31.0976 623.317 31.0976 622.683 30.7071 622.293L24.3431 615.929C23.9526 615.538 23.3194 615.538 22.9289 615.929C22.5384 616.319 22.5384 616.953 22.9289 617.343L28.5858 623L22.9289 628.657C22.5384 629.047 22.5384 629.681 22.9289 630.071C23.3194 630.462 23.9526 630.462 24.3431 630.071L30.7071 623.707ZM25.2515 335C24.6992 335 24.2515 335.448 24.2515 336C24.2515 336.552 24.6992 337 25.2515 337L25.2515 335ZM20.8421 337C21.3944 337 21.8421 336.552 21.8421 336C21.8421 335.448 21.3944 335 20.8421 335L20.8421 337ZM16.4328 335C15.8805 335 15.4328 335.448 15.4328 336C15.4328 336.552 15.8805 337 16.4328 337L16.4328 335ZM12.0234 337C12.5757 337 13.0234 336.552 13.0234 336C13.0234 335.448 12.5757 335 12.0234 335L12.0234 337ZM7.61405 335C7.06177 335 6.61405 335.448 6.61405 336C6.61405 336.552 7.06177 337 7.61405 337L7.61405 335ZM3.20469 337C3.75698 337 4.20469 336.552 4.20469 336C4.20469 335.448 3.75698 335 3.20469 335L3.20469 337ZM1.14629e-05 337.993C1.14682e-05 338.545 0.447727 338.993 1.00001 338.993C1.5523 338.993 2.00001 338.545 2.00001 337.993L1.14629e-05 337.993ZM2.00001 341.979C2.00001 341.427 1.5523 340.979 1.00001 340.979C0.447727 340.979 1.14954e-05 341.427 1.15006e-05 341.979L2.00001 341.979ZM1.15383e-05 345.965C1.15435e-05 346.518 0.447727 346.965 1.00001 346.965C1.5523 346.965 2.00001 346.518 2.00001 345.965L1.15383e-05 345.965ZM2.00001 349.951C2.00001 349.399 1.5523 348.951 1.00001 348.951C0.447727 348.951 1.15708e-05 349.399 1.1576e-05 349.951L2.00001 349.951ZM1.16137e-05 353.937C1.16189e-05 354.49 0.447727 354.937 1.00001 354.937C1.5523 354.937 2.00001 354.49 2.00001 353.937L1.16137e-05 353.937ZM2.00001 357.924C2.00001 357.371 1.5523 356.924 1.00001 356.924C0.447727 356.924 1.16462e-05 357.371 1.16514e-05 357.924L2.00001 357.924ZM1.16891e-05 361.91C1.16943e-05 362.462 0.447727 362.91 1.00001 362.91C1.5523 362.91 2.00001 362.462 2.00001 361.91L1.16891e-05 361.91ZM2.00001 365.896C2.00001 365.344 1.5523 364.896 1.00001 364.896C0.447727 364.896 1.17215e-05 365.344 1.17268e-05 365.896L2.00001 365.896ZM1.17644e-05 369.882C1.17697e-05 370.434 0.447727 370.882 1.00001 370.882C1.5523 370.882 2.00001 370.434 2.00001 369.882L1.17644e-05 369.882ZM2.00001 373.868C2.00001 373.316 1.5523 372.868 1.00001 372.868C0.447727 372.868 1.17969e-05 373.316 1.18021e-05 373.868L2.00001 373.868ZM1.18398e-05 377.854C1.1845e-05 378.406 0.447727 378.854 1.00001 378.854C1.5523 378.854 2.00001 378.406 2.00001 377.854L1.18398e-05 377.854ZM2.00001 381.84C2.00001 381.288 1.5523 380.84 1.00001 380.84C0.447727 380.84 1.18723e-05 381.288 1.18775e-05 381.84L2.00001 381.84ZM1.19152e-05 385.826C1.19204e-05 386.379 0.447727 386.826 1.00001 386.826C1.5523 386.826 2.00001 386.379 2.00001 385.826L1.19152e-05 385.826ZM2.00001 389.812C2.00001 389.26 1.5523 388.812 1.00001 388.812C0.447727 388.812 1.19477e-05 389.26 1.19529e-05 389.812L2.00001 389.812ZM1.19906e-05 393.799C1.19958e-05 394.351 0.447727 394.799 1.00001 394.799C1.5523 394.799 2.00001 394.351 2.00001 393.799L1.19906e-05 393.799ZM2.00001 397.785C2.00001 397.232 1.5523 396.785 1.00001 396.785C0.447727 396.785 1.20231e-05 397.232 1.20283e-05 397.785L2.00001 397.785ZM1.2066e-05 401.771C1.20712e-05 402.323 0.447727 402.771 1.00001 402.771C1.5523 402.771 2.00001 402.323 2.00001 401.771L1.2066e-05 401.771ZM2.00001 405.757C2.00001 405.205 1.5523 404.757 1.00001 404.757C0.447727 404.757 1.20984e-05 405.205 1.21037e-05 405.757L2.00001 405.757ZM1.21413e-05 409.743C1.21466e-05 410.295 0.447727 410.743 1.00001 410.743C1.5523 410.743 2.00001 410.295 2.00001 409.743L1.21413e-05 409.743ZM2.00001 413.729C2.00001 413.177 1.5523 412.729 1.00001 412.729C0.447727 412.729 1.21738e-05 413.177 1.2179e-05 413.729L2.00001 413.729ZM1.22167e-05 417.715C1.22219e-05 418.268 0.447727 418.715 1.00001 418.715C1.5523 418.715 2.00001 418.268 2.00001 417.715L1.22167e-05 417.715ZM2.00001 421.701C2.00001 421.149 1.5523 420.701 1.00001 420.701C0.447727 420.701 1.22492e-05 421.149 1.22544e-05 421.701L2.00001 421.701ZM1.22921e-05 425.688C1.22973e-05 426.24 0.447728 426.688 1.00001 426.688C1.5523 426.688 2.00001 426.24 2.00001 425.688L1.22921e-05 425.688ZM2.00001 429.674C2.00001 429.121 1.5523 428.674 1.00001 428.674C0.447728 428.674 1.23246e-05 429.121 1.23298e-05 429.674L2.00001 429.674ZM1.23675e-05 433.66C1.23727e-05 434.212 0.447728 434.66 1.00001 434.66C1.5523 434.66 2.00001 434.212 2.00001 433.66L1.23675e-05 433.66ZM2.00001 437.646C2.00001 437.094 1.5523 436.646 1.00001 436.646C0.447728 436.646 1.23999e-05 437.094 1.24052e-05 437.646L2.00001 437.646ZM1.24429e-05 441.632C1.24481e-05 442.184 0.447728 442.632 1.00001 442.632C1.5523 442.632 2.00001 442.184 2.00001 441.632L1.24429e-05 441.632ZM2.00001 445.618C2.00001 445.066 1.5523 444.618 1.00001 444.618C0.447728 444.618 1.24753e-05 445.066 1.24805e-05 445.618L2.00001 445.618ZM1.25182e-05 449.604C1.25235e-05 450.156 0.447728 450.604 1.00001 450.604C1.5523 450.604 2.00001 450.156 2.00001 449.604L1.25182e-05 449.604ZM2.00001 453.59C2.00001 453.038 1.5523 452.59 1.00001 452.59C0.447728 452.59 1.25507e-05 453.038 1.25559e-05 453.59L2.00001 453.59ZM1.25936e-05 457.576C1.25988e-05 458.129 0.447728 458.576 1.00001 458.576C1.5523 458.576 2.00001 458.129 2.00001 457.576L1.25936e-05 457.576ZM2.00001 461.563C2.00001 461.01 1.5523 460.563 1.00001 460.563C0.447728 460.563 1.26261e-05 461.01 1.26313e-05 461.563L2.00001 461.563ZM1.2669e-05 465.549C1.26742e-05 466.101 0.447728 466.549 1.00001 466.549C1.5523 466.549 2.00001 466.101 2.00001 465.549L1.2669e-05 465.549ZM2.00001 469.535C2.00001 468.982 1.5523 468.535 1.00001 468.535C0.447728 468.535 1.27015e-05 468.982 1.27067e-05 469.535L2.00001 469.535ZM1.27444e-05 473.521C1.27496e-05 474.073 0.447728 474.521 1.00001 474.521C1.5523 474.521 2.00001 474.073 2.00001 473.521L1.27444e-05 473.521ZM2.00001 477.507C2.00001 476.955 1.5523 476.507 1.00001 476.507C0.447728 476.507 1.27768e-05 476.955 1.27821e-05 477.507L2.00001 477.507ZM1.28197e-05 481.493C1.2825e-05 482.045 0.447728 482.493 1.00001 482.493C1.5523 482.493 2.00001 482.045 2.00001 481.493L1.28197e-05 481.493ZM2.00001 485.479C2.00001 484.927 1.5523 484.479 1.00001 484.479C0.447728 484.479 1.28522e-05 484.927 1.28574e-05 485.479L2.00001 485.479ZM1.28951e-05 489.465C1.29003e-05 490.018 0.447728 490.465 1.00001 490.465C1.5523 490.465 2.00001 490.018 2.00001 489.465L1.28951e-05 489.465ZM2.00001 493.451C2.00001 492.899 1.5523 492.451 1.00001 492.451C0.447728 492.451 1.29276e-05 492.899 1.29328e-05 493.451L2.00001 493.451ZM1.29705e-05 497.438C1.29757e-05 497.99 0.447728 498.438 1.00001 498.438C1.5523 498.438 2.00001 497.99 2.00001 497.438L1.29705e-05 497.438ZM2.00001 501.424C2.00001 500.871 1.5523 500.424 1.00001 500.424C0.447728 500.424 1.3003e-05 500.871 1.30082e-05 501.424L2.00001 501.424ZM1.30459e-05 505.41C1.30511e-05 505.962 0.447728 506.41 1.00001 506.41C1.5523 506.41 2.00001 505.962 2.00001 505.41L1.30459e-05 505.41ZM2.00001 509.396C2.00001 508.844 1.5523 508.396 1.00001 508.396C0.447728 508.396 1.30783e-05 508.844 1.30836e-05 509.396L2.00001 509.396ZM1.31213e-05 513.382C1.31265e-05 513.934 0.447728 514.382 1.00001 514.382C1.5523 514.382 2.00001 513.934 2.00001 513.382L1.31213e-05 513.382ZM2.00001 517.368C2.00001 516.816 1.5523 516.368 1.00001 516.368C0.447728 516.368 1.31537e-05 516.816 1.31589e-05 517.368L2.00001 517.368ZM1.31966e-05 521.354C1.32019e-05 521.907 0.447728 522.354 1.00001 522.354C1.5523 522.354 2.00001 521.907 2.00001 521.354L1.31966e-05 521.354ZM2.00001 525.34C2.00001 524.788 1.5523 524.34 1.00001 524.34C0.447728 524.34 1.32291e-05 524.788 1.32343e-05 525.34L2.00001 525.34ZM1.3272e-05 529.326C1.32772e-05 529.879 0.447729 530.326 1.00001 530.326C1.5523 530.326 2.00001 529.879 2.00001 529.326L1.3272e-05 529.326ZM2.00001 533.313C2.00001 532.76 1.5523 532.313 1.00001 532.313C0.447729 532.313 1.33045e-05 532.76 1.33097e-05 533.313L2.00001 533.313ZM1.33474e-05 537.299C1.33526e-05 537.851 0.447729 538.299 1.00001 538.299C1.5523 538.299 2.00001 537.851 2.00001 537.299L1.33474e-05 537.299ZM2.00001 541.285C2.00001 540.733 1.5523 540.285 1.00001 540.285C0.447729 540.285 1.33799e-05 540.733 1.33851e-05 541.285L2.00001 541.285ZM1.34228e-05 545.271C1.3428e-05 545.823 0.447729 546.271 1.00001 546.271C1.5523 546.271 2.00001 545.823 2.00001 545.271L1.34228e-05 545.271ZM2.00001 549.257C2.00001 548.705 1.5523 548.257 1.00001 548.257C0.447729 548.257 1.34552e-05 548.705 1.34605e-05 549.257L2.00001 549.257ZM1.34982e-05 553.243C1.35034e-05 553.795 0.447729 554.243 1.00001 554.243C1.5523 554.243 2.00001 553.795 2.00001 553.243L1.34982e-05 553.243ZM2.00001 557.229C2.00001 556.677 1.5523 556.229 1.00001 556.229C0.447729 556.229 1.35306e-05 556.677 1.35358e-05 557.229L2.00001 557.229ZM1.35735e-05 561.215C1.35788e-05 561.768 0.447729 562.215 1.00001 562.215C1.5523 562.215 2.00001 561.768 2.00001 561.215L1.35735e-05 561.215ZM2.00001 565.202C2.00001 564.649 1.5523 564.202 1.00001 564.202C0.447729 564.202 1.3606e-05 564.649 1.36112e-05 565.202L2.00001 565.202ZM1.36489e-05 569.188C1.36541e-05 569.74 0.447729 570.188 1.00001 570.188C1.5523 570.188 2.00001 569.74 2.00001 569.188L1.36489e-05 569.188ZM2.00001 573.174C2.00001 572.621 1.5523 572.174 1.00001 572.174C0.447729 572.174 1.36814e-05 572.621 1.36866e-05 573.174L2.00001 573.174ZM1.37243e-05 577.16C1.37295e-05 577.712 0.447729 578.16 1.00001 578.16C1.5523 578.16 2.00001 577.712 2.00001 577.16L1.37243e-05 577.16ZM2.00001 581.146C2.00001 580.594 1.5523 580.146 1.00001 580.146C0.447729 580.146 1.37568e-05 580.594 1.3762e-05 581.146L2.00001 581.146ZM1.37997e-05 585.132C1.38049e-05 585.684 0.447729 586.132 1.00001 586.132C1.5523 586.132 2.00001 585.684 2.00001 585.132L1.37997e-05 585.132ZM2.00001 589.118C2.00001 588.566 1.5523 588.118 1.00001 588.118C0.447729 588.118 1.38321e-05 588.566 1.38374e-05 589.118L2.00001 589.118ZM1.3875e-05 593.104C1.38803e-05 593.657 0.447729 594.104 1.00001 594.104C1.5523 594.104 2.00001 593.657 2.00001 593.104L1.3875e-05 593.104ZM2.00001 597.09C2.00001 596.538 1.5523 596.09 1.00001 596.09C0.447729 596.09 1.39075e-05 596.538 1.39127e-05 597.09L2.00001 597.09ZM1.39504e-05 601.077C1.39556e-05 601.629 0.447729 602.077 1.00001 602.077C1.5523 602.077 2.00001 601.629 2.00001 601.077L1.39504e-05 601.077ZM2.00001 605.063C2.00001 604.51 1.5523 604.063 1.00001 604.063C0.447729 604.063 1.39829e-05 604.51 1.39881e-05 605.063L2.00001 605.063ZM1.40258e-05 609.049C1.4031e-05 609.601 0.447729 610.049 1.00001 610.049C1.5523 610.049 2.00001 609.601 2.00001 609.049L1.40258e-05 609.049ZM2.00001 613.035C2.00001 612.483 1.5523 612.035 1.00001 612.035C0.447729 612.035 1.40583e-05 612.483 1.40635e-05 613.035L2.00001 613.035ZM1.41012e-05 617.021C1.41064e-05 617.573 0.447729 618.021 1.00001 618.021C1.5523 618.021 2.00001 617.573 2.00001 617.021L1.41012e-05 617.021ZM2.00001 621.007C2.00001 620.455 1.5523 620.007 1.00001 620.007C0.447729 620.007 1.41336e-05 620.455 1.41389e-05 621.007L2.00001 621.007ZM2.81251 624C3.3648 624 3.81251 623.552 3.81251 623C3.81251 622.448 3.3648 622 2.81251 622L2.81251 624ZM6.43751 622C5.88522 622 5.43751 622.448 5.43751 623C5.43751 623.552 5.88522 624 6.43751 624L6.43751 622ZM10.0625 624C10.6148 624 11.0625 623.552 11.0625 623C11.0625 622.448 10.6148 622 10.0625 622L10.0625 624ZM13.6875 622C13.1352 622 12.6875 622.448 12.6875 623C12.6875 623.552 13.1352 624 13.6875 624L13.6875 622ZM17.3125 624C17.8648 624 18.3125 623.552 18.3125 623C18.3125 622.448 17.8648 622 17.3125 622L17.3125 624ZM20.9375 622C20.3852 622 19.9375 622.448 19.9375 623C19.9375 623.552 20.3852 624 20.9375 624L20.9375 622ZM24.5625 624C25.1148 624 25.5625 623.552 25.5625 623C25.5625 622.448 25.1148 622 24.5625 622L24.5625 624ZM28.1875 622C27.6352 622 27.1875 622.448 27.1875 623C27.1875 623.552 27.6352 624 28.1875 624L28.1875 622ZM27.4562 335L25.2515 335L25.2515 337L27.4562 337L27.4562 335ZM20.8421 335L16.4328 335L16.4328 337L20.8421 337L20.8421 335ZM12.0234 335L7.61405 335L7.61405 337L12.0234 337L12.0234 335ZM3.20469 335L1.00001 335L1.00001 337L3.20469 337L3.20469 335ZM1.14441e-05 336L1.14629e-05 337.993L2.00001 337.993L2.00001 336L1.14441e-05 336ZM1.15006e-05 341.979L1.15383e-05 345.965L2.00001 345.965L2.00001 341.979L1.15006e-05 341.979ZM1.1576e-05 349.951L1.16137e-05 353.937L2.00001 353.937L2.00001 349.951L1.1576e-05 349.951ZM1.16514e-05 357.924L1.16891e-05 361.91L2.00001 361.91L2.00001 357.924L1.16514e-05 357.924ZM1.17268e-05 365.896L1.17644e-05 369.882L2.00001 369.882L2.00001 365.896L1.17268e-05 365.896ZM1.18021e-05 373.868L1.18398e-05 377.854L2.00001 377.854L2.00001 373.868L1.18021e-05 373.868ZM1.18775e-05 381.84L1.19152e-05 385.826L2.00001 385.826L2.00001 381.84L1.18775e-05 381.84ZM1.19529e-05 389.812L1.19906e-05 393.799L2.00001 393.799L2.00001 389.812L1.19529e-05 389.812ZM1.20283e-05 397.785L1.2066e-05 401.771L2.00001 401.771L2.00001 397.785L1.20283e-05 397.785ZM1.21037e-05 405.757L1.21413e-05 409.743L2.00001 409.743L2.00001 405.757L1.21037e-05 405.757ZM1.2179e-05 413.729L1.22167e-05 417.715L2.00001 417.715L2.00001 413.729L1.2179e-05 413.729ZM1.22544e-05 421.701L1.22921e-05 425.688L2.00001 425.688L2.00001 421.701L1.22544e-05 421.701ZM1.23298e-05 429.674L1.23675e-05 433.66L2.00001 433.66L2.00001 429.674L1.23298e-05 429.674ZM1.24052e-05 437.646L1.24429e-05 441.632L2.00001 441.632L2.00001 437.646L1.24052e-05 437.646ZM1.24805e-05 445.618L1.25182e-05 449.604L2.00001 449.604L2.00001 445.618L1.24805e-05 445.618ZM1.25559e-05 453.59L1.25936e-05 457.576L2.00001 457.576L2.00001 453.59L1.25559e-05 453.59ZM1.26313e-05 461.563L1.2669e-05 465.549L2.00001 465.549L2.00001 461.563L1.26313e-05 461.563ZM1.27067e-05 469.535L1.27444e-05 473.521L2.00001 473.521L2.00001 469.535L1.27067e-05 469.535ZM1.27821e-05 477.507L1.28197e-05 481.493L2.00001 481.493L2.00001 477.507L1.27821e-05 477.507ZM1.28574e-05 485.479L1.28951e-05 489.465L2.00001 489.465L2.00001 485.479L1.28574e-05 485.479ZM1.29328e-05 493.451L1.29705e-05 497.438L2.00001 497.438L2.00001 493.451L1.29328e-05 493.451ZM1.30082e-05 501.424L1.30459e-05 505.41L2.00001 505.41L2.00001 501.424L1.30082e-05 501.424ZM1.30836e-05 509.396L1.31213e-05 513.382L2.00001 513.382L2.00001 509.396L1.30836e-05 509.396ZM1.31589e-05 517.368L1.31966e-05 521.354L2.00001 521.354L2.00001 517.368L1.31589e-05 517.368ZM1.32343e-05 525.34L1.3272e-05 529.326L2.00001 529.326L2.00001 525.34L1.32343e-05 525.34ZM1.33097e-05 533.313L1.33474e-05 537.299L2.00001 537.299L2.00001 533.313L1.33097e-05 533.313ZM1.33851e-05 541.285L1.34228e-05 545.271L2.00001 545.271L2.00001 541.285L1.33851e-05 541.285ZM1.34605e-05 549.257L1.34982e-05 553.243L2.00001 553.243L2.00001 549.257L1.34605e-05 549.257ZM1.35358e-05 557.229L1.35735e-05 561.215L2.00001 561.215L2.00001 557.229L1.35358e-05 557.229ZM1.36112e-05 565.202L1.36489e-05 569.188L2.00001 569.188L2.00001 565.202L1.36112e-05 565.202ZM1.36866e-05 573.174L1.37243e-05 577.16L2.00001 577.16L2.00001 573.174L1.36866e-05 573.174ZM1.3762e-05 581.146L1.37997e-05 585.132L2.00001 585.132L2.00001 581.146L1.3762e-05 581.146ZM1.38374e-05 589.118L1.3875e-05 593.104L2.00001 593.104L2.00001 589.118L1.38374e-05 589.118ZM1.39127e-05 597.09L1.39504e-05 601.077L2.00001 601.077L2.00001 597.09L1.39127e-05 597.09ZM1.39881e-05 605.063L1.40258e-05 609.049L2.00001 609.049L2.00001 605.063L1.39881e-05 605.063ZM1.40635e-05 613.035L1.41012e-05 617.021L2.00001 617.021L2.00001 613.035L1.40635e-05 613.035ZM1.41389e-05 621.007L1.41577e-05 623L2.00001 623L2.00001 621.007L1.41389e-05 621.007ZM1.00001 624L2.81251 624L2.81251 622L1.00001 622L1.00001 624ZM6.43751 624L10.0625 624L10.0625 622L6.43751 622L6.43751 624ZM13.6875 624L17.3125 624L17.3125 622L13.6875 622L13.6875 624ZM20.9375 624L24.5625 624L24.5625 622L20.9375 622L20.9375 624ZM28.1875 624L30 624L30 622L28.1875 622L28.1875 624ZM27.4562 337C28.0085 337 28.4562 336.552 28.4562 336C28.4562 335.448 28.0085 335 27.4562 335L27.4562 337ZM1.00001 336L1.00001 335L1.14346e-05 335L1.14441e-05 336L1.00001 336ZM1.00001 623L1.41577e-05 623L1.41672e-05 624L1.00001 624L1.00001 623ZM30.7071 623.707C31.0976 623.317 31.0976 622.683 30.7071 622.293L24.3431 615.929C23.9526 615.538 23.3194 615.538 22.9289 615.929C22.5384 616.319 22.5384 616.953 22.9289 617.343L28.5858 623L22.9289 628.657C22.5384 629.047 22.5384 629.681 22.9289 630.071C23.3194 630.462 23.9526 630.462 24.3431 630.071L30.7071 623.707ZM25.2515 335C24.6992 335 24.2515 335.448 24.2515 336C24.2515 336.552 24.6992 337 25.2515 337L25.2515 335ZM20.8421 337C21.3944 337 21.8421 336.552 21.8421 336C21.8421 335.448 21.3944 335 20.8421 335L20.8421 337ZM16.4328 335C15.8805 335 15.4328 335.448 15.4328 336C15.4328 336.552 15.8805 337 16.4328 337L16.4328 335ZM12.0234 337C12.5757 337 13.0234 336.552 13.0234 336C13.0234 335.448 12.5757 335 12.0234 335L12.0234 337ZM7.61405 335C7.06177 335 6.61405 335.448 6.61405 336C6.61405 336.552 7.06177 337 7.61405 337L7.61405 335ZM3.20469 337C3.75698 337 4.20469 336.552 4.20469 336C4.20469 335.448 3.75698 335 3.20469 335L3.20469 337ZM1.14629e-05 337.993C1.14682e-05 338.545 0.447727 338.993 1.00001 338.993C1.5523 338.993 2.00001 338.545 2.00001 337.993L1.14629e-05 337.993ZM2.00001 341.979C2.00001 341.427 1.5523 340.979 1.00001 340.979C0.447727 340.979 1.14954e-05 341.427 1.15006e-05 341.979L2.00001 341.979ZM1.15383e-05 345.965C1.15435e-05 346.518 0.447727 346.965 1.00001 346.965C1.5523 346.965 2.00001 346.518 2.00001 345.965L1.15383e-05 345.965ZM2.00001 349.951C2.00001 349.399 1.5523 348.951 1.00001 348.951C0.447727 348.951 1.15708e-05 349.399 1.1576e-05 349.951L2.00001 349.951ZM1.16137e-05 353.937C1.16189e-05 354.49 0.447727 354.937 1.00001 354.937C1.5523 354.937 2.00001 354.49 2.00001 353.937L1.16137e-05 353.937ZM2.00001 357.924C2.00001 357.371 1.5523 356.924 1.00001 356.924C0.447727 356.924 1.16462e-05 357.371 1.16514e-05 357.924L2.00001 357.924ZM1.16891e-05 361.91C1.16943e-05 362.462 0.447727 362.91 1.00001 362.91C1.5523 362.91 2.00001 362.462 2.00001 361.91L1.16891e-05 361.91ZM2.00001 365.896C2.00001 365.344 1.5523 364.896 1.00001 364.896C0.447727 364.896 1.17215e-05 365.344 1.17268e-05 365.896L2.00001 365.896ZM1.17644e-05 369.882C1.17697e-05 370.434 0.447727 370.882 1.00001 370.882C1.5523 370.882 2.00001 370.434 2.00001 369.882L1.17644e-05 369.882ZM2.00001 373.868C2.00001 373.316 1.5523 372.868 1.00001 372.868C0.447727 372.868 1.17969e-05 373.316 1.18021e-05 373.868L2.00001 373.868ZM1.18398e-05 377.854C1.1845e-05 378.406 0.447727 378.854 1.00001 378.854C1.5523 378.854 2.00001 378.406 2.00001 377.854L1.18398e-05 377.854ZM2.00001 381.84C2.00001 381.288 1.5523 380.84 1.00001 380.84C0.447727 380.84 1.18723e-05 381.288 1.18775e-05 381.84L2.00001 381.84ZM1.19152e-05 385.826C1.19204e-05 386.379 0.447727 386.826 1.00001 386.826C1.5523 386.826 2.00001 386.379 2.00001 385.826L1.19152e-05 385.826ZM2.00001 389.812C2.00001 389.26 1.5523 388.812 1.00001 388.812C0.447727 388.812 1.19477e-05 389.26 1.19529e-05 389.812L2.00001 389.812ZM1.19906e-05 393.799C1.19958e-05 394.351 0.447727 394.799 1.00001 394.799C1.5523 394.799 2.00001 394.351 2.00001 393.799L1.19906e-05 393.799ZM2.00001 397.785C2.00001 397.232 1.5523 396.785 1.00001 396.785C0.447727 396.785 1.20231e-05 397.232 1.20283e-05 397.785L2.00001 397.785ZM1.2066e-05 401.771C1.20712e-05 402.323 0.447727 402.771 1.00001 402.771C1.5523 402.771 2.00001 402.323 2.00001 401.771L1.2066e-05 401.771ZM2.00001 405.757C2.00001 405.205 1.5523 404.757 1.00001 404.757C0.447727 404.757 1.20984e-05 405.205 1.21037e-05 405.757L2.00001 405.757ZM1.21413e-05 409.743C1.21466e-05 410.295 0.447727 410.743 1.00001 410.743C1.5523 410.743 2.00001 410.295 2.00001 409.743L1.21413e-05 409.743ZM2.00001 413.729C2.00001 413.177 1.5523 412.729 1.00001 412.729C0.447727 412.729 1.21738e-05 413.177 1.2179e-05 413.729L2.00001 413.729ZM1.22167e-05 417.715C1.22219e-05 418.268 0.447727 418.715 1.00001 418.715C1.5523 418.715 2.00001 418.268 2.00001 417.715L1.22167e-05 417.715ZM2.00001 421.701C2.00001 421.149 1.5523 420.701 1.00001 420.701C0.447727 420.701 1.22492e-05 421.149 1.22544e-05 421.701L2.00001 421.701ZM1.22921e-05 425.688C1.22973e-05 426.24 0.447728 426.688 1.00001 426.688C1.5523 426.688 2.00001 426.24 2.00001 425.688L1.22921e-05 425.688ZM2.00001 429.674C2.00001 429.121 1.5523 428.674 1.00001 428.674C0.447728 428.674 1.23246e-05 429.121 1.23298e-05 429.674L2.00001 429.674ZM1.23675e-05 433.66C1.23727e-05 434.212 0.447728 434.66 1.00001 434.66C1.5523 434.66 2.00001 434.212 2.00001 433.66L1.23675e-05 433.66ZM2.00001 437.646C2.00001 437.094 1.5523 436.646 1.00001 436.646C0.447728 436.646 1.23999e-05 437.094 1.24052e-05 437.646L2.00001 437.646ZM1.24429e-05 441.632C1.24481e-05 442.184 0.447728 442.632 1.00001 442.632C1.5523 442.632 2.00001 442.184 2.00001 441.632L1.24429e-05 441.632ZM2.00001 445.618C2.00001 445.066 1.5523 444.618 1.00001 444.618C0.447728 444.618 1.24753e-05 445.066 1.24805e-05 445.618L2.00001 445.618ZM1.25182e-05 449.604C1.25235e-05 450.156 0.447728 450.604 1.00001 450.604C1.5523 450.604 2.00001 450.156 2.00001 449.604L1.25182e-05 449.604ZM2.00001 453.59C2.00001 453.038 1.5523 452.59 1.00001 452.59C0.447728 452.59 1.25507e-05 453.038 1.25559e-05 453.59L2.00001 453.59ZM1.25936e-05 457.576C1.25988e-05 458.129 0.447728 458.576 1.00001 458.576C1.5523 458.576 2.00001 458.129 2.00001 457.576L1.25936e-05 457.576ZM2.00001 461.563C2.00001 461.01 1.5523 460.563 1.00001 460.563C0.447728 460.563 1.26261e-05 461.01 1.26313e-05 461.563L2.00001 461.563ZM1.2669e-05 465.549C1.26742e-05 466.101 0.447728 466.549 1.00001 466.549C1.5523 466.549 2.00001 466.101 2.00001 465.549L1.2669e-05 465.549ZM2.00001 469.535C2.00001 468.982 1.5523 468.535 1.00001 468.535C0.447728 468.535 1.27015e-05 468.982 1.27067e-05 469.535L2.00001 469.535ZM1.27444e-05 473.521C1.27496e-05 474.073 0.447728 474.521 1.00001 474.521C1.5523 474.521 2.00001 474.073 2.00001 473.521L1.27444e-05 473.521ZM2.00001 477.507C2.00001 476.955 1.5523 476.507 1.00001 476.507C0.447728 476.507 1.27768e-05 476.955 1.27821e-05 477.507L2.00001 477.507ZM1.28197e-05 481.493C1.2825e-05 482.045 0.447728 482.493 1.00001 482.493C1.5523 482.493 2.00001 482.045 2.00001 481.493L1.28197e-05 481.493ZM2.00001 485.479C2.00001 484.927 1.5523 484.479 1.00001 484.479C0.447728 484.479 1.28522e-05 484.927 1.28574e-05 485.479L2.00001 485.479ZM1.28951e-05 489.465C1.29003e-05 490.018 0.447728 490.465 1.00001 490.465C1.5523 490.465 2.00001 490.018 2.00001 489.465L1.28951e-05 489.465ZM2.00001 493.451C2.00001 492.899 1.5523 492.451 1.00001 492.451C0.447728 492.451 1.29276e-05 492.899 1.29328e-05 493.451L2.00001 493.451ZM1.29705e-05 497.438C1.29757e-05 497.99 0.447728 498.438 1.00001 498.438C1.5523 498.438 2.00001 497.99 2.00001 497.438L1.29705e-05 497.438ZM2.00001 501.424C2.00001 500.871 1.5523 500.424 1.00001 500.424C0.447728 500.424 1.3003e-05 500.871 1.30082e-05 501.424L2.00001 501.424ZM1.30459e-05 505.41C1.30511e-05 505.962 0.447728 506.41 1.00001 506.41C1.5523 506.41 2.00001 505.962 2.00001 505.41L1.30459e-05 505.41ZM2.00001 509.396C2.00001 508.844 1.5523 508.396 1.00001 508.396C0.447728 508.396 1.30783e-05 508.844 1.30836e-05 509.396L2.00001 509.396ZM1.31213e-05 513.382C1.31265e-05 513.934 0.447728 514.382 1.00001 514.382C1.5523 514.382 2.00001 513.934 2.00001 513.382L1.31213e-05 513.382ZM2.00001 517.368C2.00001 516.816 1.5523 516.368 1.00001 516.368C0.447728 516.368 1.31537e-05 516.816 1.31589e-05 517.368L2.00001 517.368ZM1.31966e-05 521.354C1.32019e-05 521.907 0.447728 522.354 1.00001 522.354C1.5523 522.354 2.00001 521.907 2.00001 521.354L1.31966e-05 521.354ZM2.00001 525.34C2.00001 524.788 1.5523 524.34 1.00001 524.34C0.447728 524.34 1.32291e-05 524.788 1.32343e-05 525.34L2.00001 525.34ZM1.3272e-05 529.326C1.32772e-05 529.879 0.447729 530.326 1.00001 530.326C1.5523 530.326 2.00001 529.879 2.00001 529.326L1.3272e-05 529.326ZM2.00001 533.313C2.00001 532.76 1.5523 532.313 1.00001 532.313C0.447729 532.313 1.33045e-05 532.76 1.33097e-05 533.313L2.00001 533.313ZM1.33474e-05 537.299C1.33526e-05 537.851 0.447729 538.299 1.00001 538.299C1.5523 538.299 2.00001 537.851 2.00001 537.299L1.33474e-05 537.299ZM2.00001 541.285C2.00001 540.733 1.5523 540.285 1.00001 540.285C0.447729 540.285 1.33799e-05 540.733 1.33851e-05 541.285L2.00001 541.285ZM1.34228e-05 545.271C1.3428e-05 545.823 0.447729 546.271 1.00001 546.271C1.5523 546.271 2.00001 545.823 2.00001 545.271L1.34228e-05 545.271ZM2.00001 549.257C2.00001 548.705 1.5523 548.257 1.00001 548.257C0.447729 548.257 1.34552e-05 548.705 1.34605e-05 549.257L2.00001 549.257ZM1.34982e-05 553.243C1.35034e-05 553.795 0.447729 554.243 1.00001 554.243C1.5523 554.243 2.00001 553.795 2.00001 553.243L1.34982e-05 553.243ZM2.00001 557.229C2.00001 556.677 1.5523 556.229 1.00001 556.229C0.447729 556.229 1.35306e-05 556.677 1.35358e-05 557.229L2.00001 557.229ZM1.35735e-05 561.215C1.35788e-05 561.768 0.447729 562.215 1.00001 562.215C1.5523 562.215 2.00001 561.768 2.00001 561.215L1.35735e-05 561.215ZM2.00001 565.202C2.00001 564.649 1.5523 564.202 1.00001 564.202C0.447729 564.202 1.3606e-05 564.649 1.36112e-05 565.202L2.00001 565.202ZM1.36489e-05 569.188C1.36541e-05 569.74 0.447729 570.188 1.00001 570.188C1.5523 570.188 2.00001 569.74 2.00001 569.188L1.36489e-05 569.188ZM2.00001 573.174C2.00001 572.621 1.5523 572.174 1.00001 572.174C0.447729 572.174 1.36814e-05 572.621 1.36866e-05 573.174L2.00001 573.174ZM1.37243e-05 577.16C1.37295e-05 577.712 0.447729 578.16 1.00001 578.16C1.5523 578.16 2.00001 577.712 2.00001 577.16L1.37243e-05 577.16ZM2.00001 581.146C2.00001 580.594 1.5523 580.146 1.00001 580.146C0.447729 580.146 1.37568e-05 580.594 1.3762e-05 581.146L2.00001 581.146ZM1.37997e-05 585.132C1.38049e-05 585.684 0.447729 586.132 1.00001 586.132C1.5523 586.132 2.00001 585.684 2.00001 585.132L1.37997e-05 585.132ZM2.00001 589.118C2.00001 588.566 1.5523 588.118 1.00001 588.118C0.447729 588.118 1.38321e-05 588.566 1.38374e-05 589.118L2.00001 589.118ZM1.3875e-05 593.104C1.38803e-05 593.657 0.447729 594.104 1.00001 594.104C1.5523 594.104 2.00001 593.657 2.00001 593.104L1.3875e-05 593.104ZM2.00001 597.09C2.00001 596.538 1.5523 596.09 1.00001 596.09C0.447729 596.09 1.39075e-05 596.538 1.39127e-05 597.09L2.00001 597.09ZM1.39504e-05 601.077C1.39556e-05 601.629 0.447729 602.077 1.00001 602.077C1.5523 602.077 2.00001 601.629 2.00001 601.077L1.39504e-05 601.077ZM2.00001 605.063C2.00001 604.51 1.5523 604.063 1.00001 604.063C0.447729 604.063 1.39829e-05 604.51 1.39881e-05 605.063L2.00001 605.063ZM1.40258e-05 609.049C1.4031e-05 609.601 0.447729 610.049 1.00001 610.049C1.5523 610.049 2.00001 609.601 2.00001 609.049L1.40258e-05 609.049ZM2.00001 613.035C2.00001 612.483 1.5523 612.035 1.00001 612.035C0.447729 612.035 1.40583e-05 612.483 1.40635e-05 613.035L2.00001 613.035ZM1.41012e-05 617.021C1.41064e-05 617.573 0.447729 618.021 1.00001 618.021C1.5523 618.021 2.00001 617.573 2.00001 617.021L1.41012e-05 617.021ZM2.00001 621.007C2.00001 620.455 1.5523 620.007 1.00001 620.007C0.447729 620.007 1.41336e-05 620.455 1.41389e-05 621.007L2.00001 621.007ZM2.81251 624C3.3648 624 3.81251 623.552 3.81251 623C3.81251 622.448 3.3648 622 2.81251 622L2.81251 624ZM6.43751 622C5.88522 622 5.43751 622.448 5.43751 623C5.43751 623.552 5.88522 624 6.43751 624L6.43751 622ZM10.0625 624C10.6148 624 11.0625 623.552 11.0625 623C11.0625 622.448 10.6148 622 10.0625 622L10.0625 624ZM13.6875 622C13.1352 622 12.6875 622.448 12.6875 623C12.6875 623.552 13.1352 624 13.6875 624L13.6875 622ZM17.3125 624C17.8648 624 18.3125 623.552 18.3125 623C18.3125 622.448 17.8648 622 17.3125 622L17.3125 624ZM20.9375 622C20.3852 622 19.9375 622.448 19.9375 623C19.9375 623.552 20.3852 624 20.9375 624L20.9375 622ZM24.5625 624C25.1148 624 25.5625 623.552 25.5625 623C25.5625 622.448 25.1148 622 24.5625 622L24.5625 624ZM28.1875 622C27.6352 622 27.1875 622.448 27.1875 623C27.1875 623.552 27.6352 624 28.1875 624L28.1875 622ZM27.4562 335L25.2515 335L25.2515 337L27.4562 337L27.4562 335ZM20.8421 335L16.4328 335L16.4328 337L20.8421 337L20.8421 335ZM12.0234 335L7.61405 335L7.61405 337L12.0234 337L12.0234 335ZM3.20469 335L1.00001 335L1.00001 337L3.20469 337L3.20469 335ZM1.14441e-05 336L1.14629e-05 337.993L2.00001 337.993L2.00001 336L1.14441e-05 336ZM1.15006e-05 341.979L1.15383e-05 345.965L2.00001 345.965L2.00001 341.979L1.15006e-05 341.979ZM1.1576e-05 349.951L1.16137e-05 353.937L2.00001 353.937L2.00001 349.951L1.1576e-05 349.951ZM1.16514e-05 357.924L1.16891e-05 361.91L2.00001 361.91L2.00001 357.924L1.16514e-05 357.924ZM1.17268e-05 365.896L1.17644e-05 369.882L2.00001 369.882L2.00001 365.896L1.17268e-05 365.896ZM1.18021e-05 373.868L1.18398e-05 377.854L2.00001 377.854L2.00001 373.868L1.18021e-05 373.868ZM1.18775e-05 381.84L1.19152e-05 385.826L2.00001 385.826L2.00001 381.84L1.18775e-05 381.84ZM1.19529e-05 389.812L1.19906e-05 393.799L2.00001 393.799L2.00001 389.812L1.19529e-05 389.812ZM1.20283e-05 397.785L1.2066e-05 401.771L2.00001 401.771L2.00001 397.785L1.20283e-05 397.785ZM1.21037e-05 405.757L1.21413e-05 409.743L2.00001 409.743L2.00001 405.757L1.21037e-05 405.757ZM1.2179e-05 413.729L1.22167e-05 417.715L2.00001 417.715L2.00001 413.729L1.2179e-05 413.729ZM1.22544e-05 421.701L1.22921e-05 425.688L2.00001 425.688L2.00001 421.701L1.22544e-05 421.701ZM1.23298e-05 429.674L1.23675e-05 433.66L2.00001 433.66L2.00001 429.674L1.23298e-05 429.674ZM1.24052e-05 437.646L1.24429e-05 441.632L2.00001 441.632L2.00001 437.646L1.24052e-05 437.646ZM1.24805e-05 445.618L1.25182e-05 449.604L2.00001 449.604L2.00001 445.618L1.24805e-05 445.618ZM1.25559e-05 453.59L1.25936e-05 457.576L2.00001 457.576L2.00001 453.59L1.25559e-05 453.59ZM1.26313e-05 461.563L1.2669e-05 465.549L2.00001 465.549L2.00001 461.563L1.26313e-05 461.563ZM1.27067e-05 469.535L1.27444e-05 473.521L2.00001 473.521L2.00001 469.535L1.27067e-05 469.535ZM1.27821e-05 477.507L1.28197e-05 481.493L2.00001 481.493L2.00001 477.507L1.27821e-05 477.507ZM1.28574e-05 485.479L1.28951e-05 489.465L2.00001 489.465L2.00001 485.479L1.28574e-05 485.479ZM1.29328e-05 493.451L1.29705e-05 497.438L2.00001 497.438L2.00001 493.451L1.29328e-05 493.451ZM1.30082e-05 501.424L1.30459e-05 505.41L2.00001 505.41L2.00001 501.424L1.30082e-05 501.424ZM1.30836e-05 509.396L1.31213e-05 513.382L2.00001 513.382L2.00001 509.396L1.30836e-05 509.396ZM1.31589e-05 517.368L1.31966e-05 521.354L2.00001 521.354L2.00001 517.368L1.31589e-05 517.368ZM1.32343e-05 525.34L1.3272e-05 529.326L2.00001 529.326L2.00001 525.34L1.32343e-05 525.34ZM1.33097e-05 533.313L1.33474e-05 537.299L2.00001 537.299L2.00001 533.313L1.33097e-05 533.313ZM1.33851e-05 541.285L1.34228e-05 545.271L2.00001 545.271L2.00001 541.285L1.33851e-05 541.285ZM1.34605e-05 549.257L1.34982e-05 553.243L2.00001 553.243L2.00001 549.257L1.34605e-05 549.257ZM1.35358e-05 557.229L1.35735e-05 561.215L2.00001 561.215L2.00001 557.229L1.35358e-05 557.229ZM1.36112e-05 565.202L1.36489e-05 569.188L2.00001 569.188L2.00001 565.202L1.36112e-05 565.202ZM1.36866e-05 573.174L1.37243e-05 577.16L2.00001 577.16L2.00001 573.174L1.36866e-05 573.174ZM1.3762e-05 581.146L1.37997e-05 585.132L2.00001 585.132L2.00001 581.146L1.3762e-05 581.146ZM1.38374e-05 589.118L1.3875e-05 593.104L2.00001 593.104L2.00001 589.118L1.38374e-05 589.118ZM1.39127e-05 597.09L1.39504e-05 601.077L2.00001 601.077L2.00001 597.09L1.39127e-05 597.09ZM1.39881e-05 605.063L1.40258e-05 609.049L2.00001 609.049L2.00001 605.063L1.39881e-05 605.063ZM1.40635e-05 613.035L1.41012e-05 617.021L2.00001 617.021L2.00001 613.035L1.40635e-05 613.035ZM1.41389e-05 621.007L1.41577e-05 623L2.00001 623L2.00001 621.007L1.41389e-05 621.007ZM1.00001 624L2.81251 624L2.81251 622L1.00001 622L1.00001 624ZM6.43751 624L10.0625 624L10.0625 622L6.43751 622L6.43751 624ZM13.6875 624L17.3125 624L17.3125 622L13.6875 622L13.6875 624ZM20.9375 624L24.5625 624L24.5625 622L20.9375 622L20.9375 624ZM28.1875 624L30 624L30 622L28.1875 622L28.1875 624Z" fill="#989898"/>
<path d="M18 565L17 565L17 566L18 566L18 565ZM29.7073 565.707C30.0978 565.317 30.0978 564.683 29.7073 564.293L23.3433 557.929C22.9528 557.538 22.3197 557.538 21.9291 557.929C21.5386 558.319 21.5386 558.953 21.9291 559.343L27.586 565L21.9291 570.657C21.5386 571.047 21.5386 571.681 21.9291 572.071C22.3197 572.462 22.9528 572.462 23.3433 572.071L29.7073 565.707ZM18 370L18 369L17 369L17 370L18 370ZM73.9286 369C73.3763 369 72.9286 369.448 72.9286 370C72.9286 370.552 73.3763 371 73.9286 371L73.9286 369ZM69.7857 371C70.338 371 70.7857 370.552 70.7857 370C70.7857 369.448 70.338 369 69.7857 369L69.7857 371ZM65.6429 369C65.0906 369 64.6429 369.448 64.6429 370C64.6429 370.552 65.0906 371 65.6429 371L65.6429 369ZM61.5 371C62.0523 371 62.5 370.552 62.5 370C62.5 369.448 62.0523 369 61.5 369L61.5 371ZM57.3571 369C56.8049 369 56.3571 369.448 56.3571 370C56.3571 370.552 56.8049 371 57.3571 371L57.3571 369ZM53.2143 371C53.7666 371 54.2143 370.552 54.2143 370C54.2143 369.448 53.7666 369 53.2143 369L53.2143 371ZM49.0714 369C48.5191 369 48.0714 369.448 48.0714 370C48.0714 370.552 48.5191 371 49.0714 371L49.0714 369ZM44.9286 371C45.4809 371 45.9286 370.552 45.9286 370C45.9286 369.448 45.4809 369 44.9286 369L44.9286 371ZM40.7857 369C40.2334 369 39.7857 369.448 39.7857 370C39.7857 370.552 40.2334 371 40.7857 371L40.7857 369ZM36.6429 371C37.1951 371 37.6429 370.552 37.6429 370C37.6429 369.448 37.1951 369 36.6429 369L36.6429 371ZM32.5 369C31.9477 369 31.5 369.448 31.5 370C31.5 370.552 31.9477 371 32.5 371L32.5 369ZM28.3572 371C28.9094 371 29.3572 370.552 29.3572 370C29.3572 369.448 28.9094 369 28.3572 369L28.3572 371ZM24.2143 369C23.662 369 23.2143 369.448 23.2143 370C23.2143 370.552 23.662 371 24.2143 371L24.2143 369ZM20.0714 371C20.6237 371 21.0714 370.552 21.0714 370C21.0714 369.448 20.6237 369 20.0714 369L20.0714 371ZM17 372.031C17 372.584 17.4477 373.031 18 373.031C18.5523 373.031 19 372.584 19 372.031L17 372.031ZM19 376.094C19 375.541 18.5523 375.094 18 375.094C17.4477 375.094 17 375.541 17 376.094L19 376.094ZM17 380.156C17 380.709 17.4477 381.156 18 381.156C18.5523 381.156 19 380.709 19 380.156L17 380.156ZM19 384.219C19 383.666 18.5523 383.219 18 383.219C17.4477 383.219 17 383.666 17 384.219L19 384.219ZM17 388.281C17 388.834 17.4477 389.281 18 389.281C18.5523 389.281 19 388.834 19 388.281L17 388.281ZM19 392.344C19 391.791 18.5523 391.344 18 391.344C17.4477 391.344 17 391.791 17 392.344L19 392.344ZM17 396.406C17 396.959 17.4477 397.406 18 397.406C18.5523 397.406 19 396.959 19 396.406L17 396.406ZM19 400.469C19 399.916 18.5523 399.469 18 399.469C17.4477 399.469 17 399.916 17 400.469L19 400.469ZM17 404.531C17 405.084 17.4477 405.531 18 405.531C18.5523 405.531 19 405.084 19 404.531L17 404.531ZM19 408.594C19 408.041 18.5523 407.594 18 407.594C17.4477 407.594 17 408.041 17 408.594L19 408.594ZM17 412.656C17 413.209 17.4477 413.656 18 413.656C18.5523 413.656 19 413.209 19 412.656L17 412.656ZM19 416.719C19 416.166 18.5523 415.719 18 415.719C17.4477 415.719 17 416.166 17 416.719L19 416.719ZM17 420.781C17 421.334 17.4477 421.781 18 421.781C18.5523 421.781 19 421.334 19 420.781L17 420.781ZM19 424.844C19 424.291 18.5523 423.844 18 423.844C17.4477 423.844 17 424.291 17 424.844L19 424.844ZM17 428.906C17 429.459 17.4477 429.906 18 429.906C18.5523 429.906 19 429.459 19 428.906L17 428.906ZM19 432.969C19 432.416 18.5523 431.969 18 431.969C17.4477 431.969 17 432.416 17 432.969L19 432.969ZM17 437.031C17 437.584 17.4477 438.031 18 438.031C18.5523 438.031 19 437.584 19 437.031L17 437.031ZM19 441.094C19 440.541 18.5523 440.094 18 440.094C17.4477 440.094 17 440.541 17 441.094L19 441.094ZM17 445.156C17 445.709 17.4477 446.156 18 446.156C18.5523 446.156 19 445.709 19 445.156L17 445.156ZM19 449.219C19 448.666 18.5523 448.219 18 448.219C17.4477 448.219 17 448.666 17 449.219L19 449.219ZM17 453.281C17 453.834 17.4477 454.281 18 454.281C18.5523 454.281 19 453.834 19 453.281L17 453.281ZM19 457.344C19 456.791 18.5523 456.344 18 456.344C17.4477 456.344 17 456.791 17 457.344L19 457.344ZM17 461.406C17 461.959 17.4477 462.406 18 462.406C18.5523 462.406 19 461.959 19 461.406L17 461.406ZM19 465.469C19 464.916 18.5523 464.469 18 464.469C17.4477 464.469 17 464.916 17 465.469L19 465.469ZM17 469.531C17 470.084 17.4477 470.531 18 470.531C18.5523 470.531 19 470.084 19 469.531L17 469.531ZM19 473.594C19 473.041 18.5523 472.594 18 472.594C17.4477 472.594 17 473.041 17 473.594L19 473.594ZM17 477.656C17 478.209 17.4477 478.656 18 478.656C18.5523 478.656 19 478.209 19 477.656L17 477.656ZM19 481.719C19 481.166 18.5523 480.719 18 480.719C17.4477 480.719 17 481.166 17 481.719L19 481.719ZM17 485.781C17 486.334 17.4477 486.781 18 486.781C18.5523 486.781 19 486.334 19 485.781L17 485.781ZM19 489.844C19 489.291 18.5523 488.844 18 488.844C17.4477 488.844 17 489.291 17 489.844L19 489.844ZM17 493.906C17 494.459 17.4477 494.906 18 494.906C18.5523 494.906 19 494.459 19 493.906L17 493.906ZM19 497.969C19 497.416 18.5523 496.969 18 496.969C17.4477 496.969 17 497.416 17 497.969L19 497.969ZM17 502.031C17 502.584 17.4477 503.031 18 503.031C18.5523 503.031 19 502.584 19 502.031L17 502.031ZM19 506.094C19 505.541 18.5523 505.094 18 505.094C17.4477 505.094 17 505.541 17 506.094L19 506.094ZM17 510.156C17 510.709 17.4477 511.156 18 511.156C18.5523 511.156 19 510.709 19 510.156L17 510.156ZM19 514.219C19 513.666 18.5523 513.219 18 513.219C17.4477 513.219 17 513.666 17 514.219L19 514.219ZM17 518.281C17 518.834 17.4477 519.281 18 519.281C18.5523 519.281 19 518.834 19 518.281L17 518.281ZM19 522.344C19 521.791 18.5523 521.344 18 521.344C17.4477 521.344 17 521.791 17 522.344L19 522.344ZM17 526.406C17 526.959 17.4477 527.406 18 527.406C18.5523 527.406 19 526.959 19 526.406L17 526.406ZM19 530.469C19 529.916 18.5523 529.469 18 529.469C17.4477 529.469 17 529.916 17 530.469L19 530.469ZM17 534.531C17 535.084 17.4477 535.531 18 535.531C18.5523 535.531 19 535.084 19 534.531L17 534.531ZM19 538.594C19 538.041 18.5523 537.594 18 537.594C17.4477 537.594 17 538.041 17 538.594L19 538.594ZM17 542.656C17 543.209 17.4477 543.656 18 543.656C18.5523 543.656 19 543.209 19 542.656L17 542.656ZM19 546.719C19 546.166 18.5523 545.719 18 545.719C17.4477 545.719 17 546.166 17 546.719L19 546.719ZM17 550.781C17 551.334 17.4477 551.781 18 551.781C18.5523 551.781 19 551.334 19 550.781L17 550.781ZM19 554.844C19 554.291 18.5523 553.844 18 553.844C17.4477 553.844 17 554.291 17 554.844L19 554.844ZM17 558.906C17 559.459 17.4477 559.906 18 559.906C18.5523 559.906 19 559.459 19 558.906L17 558.906ZM19 562.969C19 562.416 18.5523 561.969 18 561.969C17.4477 561.969 17 562.416 17 562.969L19 562.969ZM20.7501 566C21.3023 566 21.7501 565.552 21.7501 565C21.7501 564.448 21.3023 564 20.7501 564L20.7501 566ZM26.2501 564C25.6979 564 25.2501 564.448 25.2501 565C25.2501 565.552 25.6979 566 26.2501 566L26.2501 564ZM76 369L73.9286 369L73.9286 371L76 371L76 369ZM69.7857 369L65.6429 369L65.6429 371L69.7857 371L69.7857 369ZM61.5 369L57.3571 369L57.3571 371L61.5 371L61.5 369ZM53.2143 369L49.0714 369L49.0714 371L53.2143 371L53.2143 369ZM44.9286 369L40.7857 369L40.7857 371L44.9286 371L44.9286 369ZM36.6429 369L32.5 369L32.5 371L36.6429 371L36.6429 369ZM28.3572 369L24.2143 369L24.2143 371L28.3572 371L28.3572 369ZM20.0714 369L18 369L18 371L20.0714 371L20.0714 369ZM17 370L17 372.031L19 372.031L19 370L17 370ZM17 376.094L17 380.156L19 380.156L19 376.094L17 376.094ZM17 384.219L17 388.281L19 388.281L19 384.219L17 384.219ZM17 392.344L17 396.406L19 396.406L19 392.344L17 392.344ZM17 400.469L17 404.531L19 404.531L19 400.469L17 400.469ZM17 408.594L17 412.656L19 412.656L19 408.594L17 408.594ZM17 416.719L17 420.781L19 420.781L19 416.719L17 416.719ZM17 424.844L17 428.906L19 428.906L19 424.844L17 424.844ZM17 432.969L17 437.031L19 437.031L19 432.969L17 432.969ZM17 441.094L17 445.156L19 445.156L19 441.094L17 441.094ZM17 449.219L17 453.281L19 453.281L19 449.219L17 449.219ZM17 457.344L17 461.406L19 461.406L19 457.344L17 457.344ZM17 465.469L17 469.531L19 469.531L19 465.469L17 465.469ZM17 473.594L17 477.656L19 477.656L19 473.594L17 473.594ZM17 481.719L17 485.781L19 485.781L19 481.719L17 481.719ZM17 489.844L17 493.906L19 493.906L19 489.844L17 489.844ZM17 497.969L17 502.031L19 502.031L19 497.969L17 497.969ZM17 506.094L17 510.156L19 510.156L19 506.094L17 506.094ZM17 514.219L17 518.281L19 518.281L19 514.219L17 514.219ZM17 522.344L17 526.406L19 526.406L19 522.344L17 522.344ZM17 530.469L17 534.531L19 534.531L19 530.469L17 530.469ZM17 538.594L17 542.656L19 542.656L19 538.594L17 538.594ZM17 546.719L17 550.781L19 550.781L19 546.719L17 546.719ZM17 554.844L17 558.906L19 558.906L19 554.844L17 554.844ZM17 562.969L17 565L19 565L19 562.969L17 562.969ZM18 566L20.7501 566L20.7501 564L18 564L18 566ZM26.2501 566L29.0002 566L29.0002 564L26.2501 564L26.2501 566ZM18 565L17 565L17 566L18 566L18 565ZM29.7073 565.707C30.0978 565.317 30.0978 564.683 29.7073 564.293L23.3433 557.929C22.9528 557.538 22.3197 557.538 21.9291 557.929C21.5386 558.319 21.5386 558.953 21.9291 559.343L27.586 565L21.9291 570.657C21.5386 571.047 21.5386 571.681 21.9291 572.071C22.3197 572.462 22.9528 572.462 23.3433 572.071L29.7073 565.707ZM18 370L18 369L17 369L17 370L18 370ZM73.9286 369C73.3763 369 72.9286 369.448 72.9286 370C72.9286 370.552 73.3763 371 73.9286 371L73.9286 369ZM69.7857 371C70.338 371 70.7857 370.552 70.7857 370C70.7857 369.448 70.338 369 69.7857 369L69.7857 371ZM65.6429 369C65.0906 369 64.6429 369.448 64.6429 370C64.6429 370.552 65.0906 371 65.6429 371L65.6429 369ZM61.5 371C62.0523 371 62.5 370.552 62.5 370C62.5 369.448 62.0523 369 61.5 369L61.5 371ZM57.3571 369C56.8049 369 56.3571 369.448 56.3571 370C56.3571 370.552 56.8049 371 57.3571 371L57.3571 369ZM53.2143 371C53.7666 371 54.2143 370.552 54.2143 370C54.2143 369.448 53.7666 369 53.2143 369L53.2143 371ZM49.0714 369C48.5191 369 48.0714 369.448 48.0714 370C48.0714 370.552 48.5191 371 49.0714 371L49.0714 369ZM44.9286 371C45.4809 371 45.9286 370.552 45.9286 370C45.9286 369.448 45.4809 369 44.9286 369L44.9286 371ZM40.7857 369C40.2334 369 39.7857 369.448 39.7857 370C39.7857 370.552 40.2334 371 40.7857 371L40.7857 369ZM36.6429 371C37.1951 371 37.6429 370.552 37.6429 370C37.6429 369.448 37.1951 369 36.6429 369L36.6429 371ZM32.5 369C31.9477 369 31.5 369.448 31.5 370C31.5 370.552 31.9477 371 32.5 371L32.5 369ZM28.3572 371C28.9094 371 29.3572 370.552 29.3572 370C29.3572 369.448 28.9094 369 28.3572 369L28.3572 371ZM24.2143 369C23.662 369 23.2143 369.448 23.2143 370C23.2143 370.552 23.662 371 24.2143 371L24.2143 369ZM20.0714 371C20.6237 371 21.0714 370.552 21.0714 370C21.0714 369.448 20.6237 369 20.0714 369L20.0714 371ZM17 372.031C17 372.584 17.4477 373.031 18 373.031C18.5523 373.031 19 372.584 19 372.031L17 372.031ZM19 376.094C19 375.541 18.5523 375.094 18 375.094C17.4477 375.094 17 375.541 17 376.094L19 376.094ZM17 380.156C17 380.709 17.4477 381.156 18 381.156C18.5523 381.156 19 380.709 19 380.156L17 380.156ZM19 384.219C19 383.666 18.5523 383.219 18 383.219C17.4477 383.219 17 383.666 17 384.219L19 384.219ZM17 388.281C17 388.834 17.4477 389.281 18 389.281C18.5523 389.281 19 388.834 19 388.281L17 388.281ZM19 392.344C19 391.791 18.5523 391.344 18 391.344C17.4477 391.344 17 391.791 17 392.344L19 392.344ZM17 396.406C17 396.959 17.4477 397.406 18 397.406C18.5523 397.406 19 396.959 19 396.406L17 396.406ZM19 400.469C19 399.916 18.5523 399.469 18 399.469C17.4477 399.469 17 399.916 17 400.469L19 400.469ZM17 404.531C17 405.084 17.4477 405.531 18 405.531C18.5523 405.531 19 405.084 19 404.531L17 404.531ZM19 408.594C19 408.041 18.5523 407.594 18 407.594C17.4477 407.594 17 408.041 17 408.594L19 408.594ZM17 412.656C17 413.209 17.4477 413.656 18 413.656C18.5523 413.656 19 413.209 19 412.656L17 412.656ZM19 416.719C19 416.166 18.5523 415.719 18 415.719C17.4477 415.719 17 416.166 17 416.719L19 416.719ZM17 420.781C17 421.334 17.4477 421.781 18 421.781C18.5523 421.781 19 421.334 19 420.781L17 420.781ZM19 424.844C19 424.291 18.5523 423.844 18 423.844C17.4477 423.844 17 424.291 17 424.844L19 424.844ZM17 428.906C17 429.459 17.4477 429.906 18 429.906C18.5523 429.906 19 429.459 19 428.906L17 428.906ZM19 432.969C19 432.416 18.5523 431.969 18 431.969C17.4477 431.969 17 432.416 17 432.969L19 432.969ZM17 437.031C17 437.584 17.4477 438.031 18 438.031C18.5523 438.031 19 437.584 19 437.031L17 437.031ZM19 441.094C19 440.541 18.5523 440.094 18 440.094C17.4477 440.094 17 440.541 17 441.094L19 441.094ZM17 445.156C17 445.709 17.4477 446.156 18 446.156C18.5523 446.156 19 445.709 19 445.156L17 445.156ZM19 449.219C19 448.666 18.5523 448.219 18 448.219C17.4477 448.219 17 448.666 17 449.219L19 449.219ZM17 453.281C17 453.834 17.4477 454.281 18 454.281C18.5523 454.281 19 453.834 19 453.281L17 453.281ZM19 457.344C19 456.791 18.5523 456.344 18 456.344C17.4477 456.344 17 456.791 17 457.344L19 457.344ZM17 461.406C17 461.959 17.4477 462.406 18 462.406C18.5523 462.406 19 461.959 19 461.406L17 461.406ZM19 465.469C19 464.916 18.5523 464.469 18 464.469C17.4477 464.469 17 464.916 17 465.469L19 465.469ZM17 469.531C17 470.084 17.4477 470.531 18 470.531C18.5523 470.531 19 470.084 19 469.531L17 469.531ZM19 473.594C19 473.041 18.5523 472.594 18 472.594C17.4477 472.594 17 473.041 17 473.594L19 473.594ZM17 477.656C17 478.209 17.4477 478.656 18 478.656C18.5523 478.656 19 478.209 19 477.656L17 477.656ZM19 481.719C19 481.166 18.5523 480.719 18 480.719C17.4477 480.719 17 481.166 17 481.719L19 481.719ZM17 485.781C17 486.334 17.4477 486.781 18 486.781C18.5523 486.781 19 486.334 19 485.781L17 485.781ZM19 489.844C19 489.291 18.5523 488.844 18 488.844C17.4477 488.844 17 489.291 17 489.844L19 489.844ZM17 493.906C17 494.459 17.4477 494.906 18 494.906C18.5523 494.906 19 494.459 19 493.906L17 493.906ZM19 497.969C19 497.416 18.5523 496.969 18 496.969C17.4477 496.969 17 497.416 17 497.969L19 497.969ZM17 502.031C17 502.584 17.4477 503.031 18 503.031C18.5523 503.031 19 502.584 19 502.031L17 502.031ZM19 506.094C19 505.541 18.5523 505.094 18 505.094C17.4477 505.094 17 505.541 17 506.094L19 506.094ZM17 510.156C17 510.709 17.4477 511.156 18 511.156C18.5523 511.156 19 510.709 19 510.156L17 510.156ZM19 514.219C19 513.666 18.5523 513.219 18 513.219C17.4477 513.219 17 513.666 17 514.219L19 514.219ZM17 518.281C17 518.834 17.4477 519.281 18 519.281C18.5523 519.281 19 518.834 19 518.281L17 518.281ZM19 522.344C19 521.791 18.5523 521.344 18 521.344C17.4477 521.344 17 521.791 17 522.344L19 522.344ZM17 526.406C17 526.959 17.4477 527.406 18 527.406C18.5523 527.406 19 526.959 19 526.406L17 526.406ZM19 530.469C19 529.916 18.5523 529.469 18 529.469C17.4477 529.469 17 529.916 17 530.469L19 530.469ZM17 534.531C17 535.084 17.4477 535.531 18 535.531C18.5523 535.531 19 535.084 19 534.531L17 534.531ZM19 538.594C19 538.041 18.5523 537.594 18 537.594C17.4477 537.594 17 538.041 17 538.594L19 538.594ZM17 542.656C17 543.209 17.4477 543.656 18 543.656C18.5523 543.656 19 543.209 19 542.656L17 542.656ZM19 546.719C19 546.166 18.5523 545.719 18 545.719C17.4477 545.719 17 546.166 17 546.719L19 546.719ZM17 550.781C17 551.334 17.4477 551.781 18 551.781C18.5523 551.781 19 551.334 19 550.781L17 550.781ZM19 554.844C19 554.291 18.5523 553.844 18 553.844C17.4477 553.844 17 554.291 17 554.844L19 554.844ZM17 558.906C17 559.459 17.4477 559.906 18 559.906C18.5523 559.906 19 559.459 19 558.906L17 558.906ZM19 562.969C19 562.416 18.5523 561.969 18 561.969C17.4477 561.969 17 562.416 17 562.969L19 562.969ZM20.7501 566C21.3023 566 21.7501 565.552 21.7501 565C21.7501 564.448 21.3023 564 20.7501 564L20.7501 566ZM26.2501 564C25.6979 564 25.2501 564.448 25.2501 565C25.2501 565.552 25.6979 566 26.2501 566L26.2501 564ZM76 369L73.9286 369L73.9286 371L76 371L76 369ZM69.7857 369L65.6429 369L65.6429 371L69.7857 371L69.7857 369ZM61.5 369L57.3571 369L57.3571 371L61.5 371L61.5 369ZM53.2143 369L49.0714 369L49.0714 371L53.2143 371L53.2143 369ZM44.9286 369L40.7857 369L40.7857 371L44.9286 371L44.9286 369ZM36.6429 369L32.5 369L32.5 371L36.6429 371L36.6429 369ZM28.3572 369L24.2143 369L24.2143 371L28.3572 371L28.3572 369ZM20.0714 369L18 369L18 371L20.0714 371L20.0714 369ZM17 370L17 372.031L19 372.031L19 370L17 370ZM17 376.094L17 380.156L19 380.156L19 376.094L17 376.094ZM17 384.219L17 388.281L19 388.281L19 384.219L17 384.219ZM17 392.344L17 396.406L19 396.406L19 392.344L17 392.344ZM17 400.469L17 404.531L19 404.531L19 400.469L17 400.469ZM17 408.594L17 412.656L19 412.656L19 408.594L17 408.594ZM17 416.719L17 420.781L19 420.781L19 416.719L17 416.719ZM17 424.844L17 428.906L19 428.906L19 424.844L17 424.844ZM17 432.969L17 437.031L19 437.031L19 432.969L17 432.969ZM17 441.094L17 445.156L19 445.156L19 441.094L17 441.094ZM17 449.219L17 453.281L19 453.281L19 449.219L17 449.219ZM17 457.344L17 461.406L19 461.406L19 457.344L17 457.344ZM17 465.469L17 469.531L19 469.531L19 465.469L17 465.469ZM17 473.594L17 477.656L19 477.656L19 473.594L17 473.594ZM17 481.719L17 485.781L19 485.781L19 481.719L17 481.719ZM17 489.844L17 493.906L19 493.906L19 489.844L17 489.844ZM17 497.969L17 502.031L19 502.031L19 497.969L17 497.969ZM17 506.094L17 510.156L19 510.156L19 506.094L17 506.094ZM17 514.219L17 518.281L19 518.281L19 514.219L17 514.219ZM17 522.344L17 526.406L19 526.406L19 522.344L17 522.344ZM17 530.469L17 534.531L19 534.531L19 530.469L17 530.469ZM17 538.594L17 542.656L19 542.656L19 538.594L17 538.594ZM17 546.719L17 550.781L19 550.781L19 546.719L17 546.719ZM17 554.844L17 558.906L19 558.906L19 554.844L17 554.844ZM17 562.969L17 565L19 565L19 562.969L17 562.969ZM18 566L20.7501 566L20.7501 564L18 564L18 566ZM26.2501 566L29.0002 566L29.0002 564L26.2501 564L26.2501 566Z" fill="#989898"/>
</svg>
