<svg width="17" height="24" viewBox="0 0 17 24" fill="none"
  xmlns="http://www.w3.org/2000/svg">
  <path fill-rule="evenodd" clip-rule="evenodd" d="M16 -1.39877e-06C15.4478 -1.35049e-06 15 0.447716 15 1L15 10.3275L1.21514 2.11214C1.09211 2.03883 0.9525 2.00016 0.810345 2.00002C0.668191 1.99987 0.528505 2.03826 0.405339 2.11133C0.282172 2.18439 0.179867 2.28956 0.108713 2.41624C0.0375584 2.54292 6.38102e-05 2.68666 2.47668e-07 2.83299L1.85045e-06 21.1667C1.86977e-06 21.3877 0.085294 21.5997 0.237115 21.7559C0.388936 21.9122 0.594849 22 0.809555 22C0.952022 22 1.09195 21.9612 1.21514 21.8875L15 13.6722L15 23C15 23.5523 15.4478 24 16 24C16.5523 24 17 23.5523 17 23L17 1C17 0.447715 16.5523 -1.44705e-06 16 -1.39877e-06Z" fill="#88816E"/>
</svg>
