<svg width="17" height="24" viewBox="0 0 17 24" fill="none"
  xmlns="http://www.w3.org/2000/svg">
  <path fill-rule="evenodd" clip-rule="evenodd" d="M0.999928 24C1.55221 24 1.99993 23.5523 1.99993 23L1.99993 13.6725L15.7849 21.8878C15.9079 21.9612 16.0475 21.9998 16.1897 22C16.3318 22.0001 16.4715 21.9617 16.5947 21.8887C16.7178 21.8156 16.8201 21.7104 16.8913 21.5838C16.9624 21.4571 16.9999 21.3133 17 21.167L17 2.83332C17 2.6123 16.9147 2.40034 16.7629 2.24405C16.6111 2.08777 16.4052 1.99997 16.1904 1.99997C16.048 2.00001 15.9081 2.03882 15.7849 2.11247L1.99993 10.3278L1.99992 0.999999C1.99992 0.447715 1.55221 -5.5686e-07 0.999925 -5.08578e-07C0.447639 -4.60295e-07 -7.45383e-05 0.447715 -7.449e-05 1L-7.25667e-05 23C-7.25184e-05 23.5523 0.447641 24 0.999928 24Z" fill="#88816E"/>
</svg>
